<svg xmlns="http://www.w3.org/2000/svg" width="83.777" height="44.847" viewBox="0 0 83.777 44.847"><defs><style>.a{fill:#085929;}.b{fill:#18732c;}.b,.e,.f,.g,.h,.i,.j,.k,.l,.m,.q,.r,.s,.t{fill-rule:evenodd;}.c{fill:#008e2f;}.d{fill:#24942e;}.e{fill:#00487f;}.f{fill:#005d93;}.g{fill:#0078b8;}.h{fill:#0088c5;}.i{fill:#db004d;}.j{fill:#a6131f;}.k{fill:#dc0027;}.l{fill:#ce001d;}.m{fill:#dc0d2e;}.n,.t{fill:#e13021;}.o{fill:#e64d1c;}.p{fill:#f27c19;}.q{fill:#d07e14;}.r{fill:#ffab00;}.s{fill:#ffc83f;}.u{fill:#5d5c5c;}</style></defs><g transform="translate(0 0)"><g transform="translate(0 0)"><path class="a" d="M158.245,54.508l7.773,4.487V50.023Z" transform="translate(-158.245 -18.63)"/><path class="b" d="M164.925,50.023V59l7.763-4.488Z" transform="translate(-157.153 -18.63)"/><path class="c" d="M164.925,58.365l7.768,4.481V53.878Z" transform="translate(-157.153 -17.999)"/><path class="d" d="M171.6,62.846l7.767-4.481L171.6,53.877Z" transform="translate(-156.061 -17.999)"/><path class="e" d="M171.6,54.508l7.767,4.487V50.023Z" transform="translate(-156.061 -18.63)"/><path class="f" d="M178.276,50.023V59l7.769-4.488Z" transform="translate(-154.969 -18.63)"/><path class="g" d="M186.045,46.168l-7.769,4.484,7.769,4.486Z" transform="translate(-154.969 -19.26)"/><path class="h" d="M178.276,42.314v8.97l7.769-4.486Z" transform="translate(-154.969 -19.891)"/><path class="i" d="M186.045,38.463l-7.769,4.481,7.769,4.486Z" transform="translate(-154.969 -20.521)"/><path class="j" d="M178.276,34.606v8.969l7.769-4.482Z" transform="translate(-154.969 -21.151)"/><path class="k" d="M179.368,34.606,171.6,39.093l7.767,4.482Z" transform="translate(-156.061 -21.151)"/><path class="l" d="M171.6,30.757v8.967l7.767-4.487Z" transform="translate(-156.061 -21.781)"/><path class="m" d="M172.693,30.757l-7.768,4.48,7.768,4.487Z" transform="translate(-157.153 -21.781)"/><path class="n" d="M158.251,39.723l7.766-4.487-7.766-4.48Z" transform="translate(-158.244 -21.781)"/><path class="o" d="M158.251,31.388l7.766,4.48V26.9Z" transform="translate(-158.244 -22.412)"/><path class="p" d="M158.251,23.043v8.976l7.766-4.491Z" transform="translate(-158.244 -23.043)"/><path class="q" d="M171.6,46.279v5.769l4.994-2.882Z" transform="translate(-156.061 -19.242)"/><path class="r" d="M176.6,43.8l-5,2.885,5,2.887Z" transform="translate(-156.061 -19.647)"/><path class="s" d="M171.6,41.324V47.09l4.994-2.884Z" transform="translate(-156.061 -20.053)"/><path class="q" d="M172.3,46.279v5.769l-5-2.882Z" transform="translate(-156.764 -19.242)"/><path class="r" d="M167.3,43.8l5,2.885-5,2.887Z" transform="translate(-156.763 -19.647)"/><path class="s" d="M172.3,41.324V47.09l-5-2.884Z" transform="translate(-156.764 -20.053)"/><path class="o" d="M158.245,39.094l7.773,4.481V34.607Z" transform="translate(-158.245 -21.151)"/><path class="t" d="M164.925,34.606v8.969l7.768-4.482Z" transform="translate(-157.153 -21.151)"/><path class="u" d="M199.2,49.643a4.261,4.261,0,0,1-.571,2.126,4.078,4.078,0,0,1-3.59,2.112,3.9,3.9,0,0,1-2.933-1.222A4.143,4.143,0,0,1,190.9,49.6a4.334,4.334,0,0,1,.538-2.158,3.809,3.809,0,0,1,1.517-1.506,4.232,4.232,0,0,1,2.1-.561,3.961,3.961,0,0,1,2.042.56,4.1,4.1,0,0,1,1.524,1.573,4.357,4.357,0,0,1,.576,2.136m.766-4.827a6.429,6.429,0,0,0-4.756-2.026,6.559,6.559,0,0,0-2.883.645,6.366,6.366,0,0,0-1.318.859V38.475h-2.717l.01,11.395a6.328,6.328,0,0,0,1.255,4.049,8.472,8.472,0,0,0,2.63,2.007,7.294,7.294,0,0,0,2.979.614,6.491,6.491,0,0,0,4.783-2.013,6.629,6.629,0,0,0,1.982-4.828,6.761,6.761,0,0,0-1.965-4.884" transform="translate(-153.331 -20.519)"/><rect class="u" width="2.739" height="17.942" transform="translate(49.965 17.93)"/><path class="u" d="M215.591,49.113a4.391,4.391,0,0,1-.546,2.136,3.691,3.691,0,0,1-1.463,1.5,4.257,4.257,0,0,1-4.091,0,3.751,3.751,0,0,1-1.47-1.5,4.335,4.335,0,0,1-.55-2.136,4.132,4.132,0,0,1,1.205-3.01,3.92,3.92,0,0,1,5.713,0,4.146,4.146,0,0,1,1.2,3.01m.954-4.751a6.832,6.832,0,0,0-10.034.014,7,7,0,0,0,.1,9.484,6.91,6.91,0,0,0,9.836,0,6.777,6.777,0,0,0,1.9-4.771,6.863,6.863,0,0,0-1.8-4.728" transform="translate(-150.645 -19.913)"/><path class="u" d="M226.637,44.834h0l2.235-3.1h-3.31l-.7.972h0l-.02.033-.088.119v.006L222,46.723l-2.861-4.013H215.83l4.515,6.275L215.4,55.857h3.293l3.312-4.6,3.352,4.6h3.342l-5.046-6.877Z" transform="translate(-148.897 -19.985)"/><path class="u" d="M229.065,39.776a.263.263,0,1,1,0,.526h-.47v-.526Zm.236.826a.625.625,0,0,0-.236-1.226h-.909v1.939h.434v-.635h.246l.5.635h.475v-.1Zm-.414,1.222a1.476,1.476,0,1,0-1.4-1.471,1.362,1.362,0,0,0,1.4,1.471m1.887-1.471a1.883,1.883,0,1,1-1.887-1.9,1.806,1.806,0,0,1,1.887,1.9" transform="translate(-146.997 -20.522)"/></g><path class="a" d="M158.245,54.508l7.773,4.487V50.023Z" transform="translate(-158.245 -18.63)"/><path class="b" d="M164.925,50.023V59l7.763-4.488Z" transform="translate(-157.153 -18.63)"/><path class="c" d="M164.925,58.365l7.768,4.481V53.878Z" transform="translate(-157.153 -17.999)"/><path class="d" d="M171.6,62.846l7.767-4.481L171.6,53.877Z" transform="translate(-156.061 -17.999)"/><path class="e" d="M171.6,54.508l7.767,4.487V50.023Z" transform="translate(-156.061 -18.63)"/><path class="f" d="M178.276,50.023V59l7.769-4.488Z" transform="translate(-154.969 -18.63)"/><path class="g" d="M186.045,46.168l-7.769,4.484,7.769,4.486Z" transform="translate(-154.969 -19.26)"/><path class="h" d="M178.276,42.314v8.97l7.769-4.486Z" transform="translate(-154.969 -19.891)"/><path class="i" d="M186.045,38.463l-7.769,4.481,7.769,4.486Z" transform="translate(-154.969 -20.521)"/><path class="j" d="M178.276,34.606v8.969l7.769-4.482Z" transform="translate(-154.969 -21.152)"/><path class="k" d="M179.368,34.606,171.6,39.093l7.767,4.482Z" transform="translate(-156.061 -21.152)"/><path class="l" d="M171.6,30.757v8.967l7.767-4.487Z" transform="translate(-156.061 -21.781)"/><path class="m" d="M172.693,30.757l-7.768,4.48,7.768,4.487Z" transform="translate(-157.153 -21.781)"/><path class="n" d="M158.251,39.723l7.766-4.487-7.766-4.48Z" transform="translate(-158.244 -21.781)"/><path class="o" d="M158.251,31.388l7.766,4.48V26.9Z" transform="translate(-158.244 -22.412)"/><path class="p" d="M158.251,23.043v8.976l7.766-4.491Z" transform="translate(-158.244 -23.043)"/><path class="q" d="M171.6,46.279v5.769l4.994-2.882Z" transform="translate(-156.061 -19.242)"/><path class="r" d="M176.6,43.8l-5,2.885,5,2.887Z" transform="translate(-156.061 -19.648)"/><path class="s" d="M171.6,41.324V47.09l4.994-2.884Z" transform="translate(-156.061 -20.053)"/><path class="q" d="M172.3,46.279v5.769l-5-2.882Z" transform="translate(-156.764 -19.242)"/><path class="r" d="M167.3,43.8l5,2.885-5,2.887Z" transform="translate(-156.763 -19.648)"/><path class="s" d="M172.3,41.324V47.09l-5-2.884Z" transform="translate(-156.764 -20.053)"/><path class="o" d="M158.245,39.094l7.773,4.481V34.607Z" transform="translate(-158.245 -21.151)"/><path class="t" d="M164.925,34.606v8.969l7.768-4.482Z" transform="translate(-157.153 -21.152)"/></g></svg>