<svg xmlns="http://www.w3.org/2000/svg" xmlns:xlink="http://www.w3.org/1999/xlink" width="1280" height="1080" viewBox="0 0 1280 1080"><defs><style>.a{fill:#fff;stroke:#707070;}.b{clip-path:url(#a);}.ae,.c,.f{fill:#2380c1;}.c{opacity:0.251;}.d{fill:#ebf7ff;}.e{opacity:0.47;}.g{fill:#13628e;}.h{fill:#f3f7fc;}.i{fill:#c2d8f1;}.j{fill:#3981d1;opacity:0.2;}.ab,.k{fill:#d7e6f6;}.k,.l,.r,.s,.t{fill-rule:evenodd;}.l,.p{fill:#a4c5ea;}.aa,.ac,.l,.p,.x,.z{opacity:0.5;mix-blend-mode:multiply;isolation:isolate;}.m{fill:#e7f0f9;}.n{fill:#86b2e3;}.o{fill:#b2ceed;}.q{fill:#b8d2ee;}.r{fill:#80aee2;}.s{fill:#639bdb;}.t{fill:#74a7df;}.u{fill:#9ec4e5;}.v{fill:#a7bfd6;}.w{fill:#e1ecf8;}.x{fill:#bcd4ef;}.y{fill:#ebf2fa;}.z{fill:#dfebf8;}.aa{fill:#b6d0ee;}.ac{fill:#a0c3e9;}.ad{fill:#e3edf9;}.ae,.af{opacity:0.4;}.af,.ak,.bk{fill:none;}.af{stroke:#2380c1;}.af,.ak{stroke-miterlimit:10;}.ag{fill:#ea7068;}.ah{fill:#b4ecda;}.ai{fill:#1f39d8;}.aj{fill:url(#b);}.ak{stroke:#4089c1;stroke-linecap:round;stroke-width:1.849px;}.al{fill:#f8fdff;}.am{fill:#ea8b68;}.an{fill:#2196f3;}.ao{fill:#56d59a;}.ap{fill:#f8cc10;}.aq{fill:#d82e60;}.ar{fill:#2f3685;}.as{fill:#f39c8e;}.at{fill:#ffd179;}.au{fill:#142143;}.av{fill:#f59e78;}.aw{fill:#004681;}.ax{fill:#245791;}.ay{fill:#f77514;}.az{fill:#7aacde;}.ba{fill:#e986b5;}.bb{fill:#cd6257;}.bc{fill:#f0752c;}.bd{fill:#ed9c80;}.be{fill:#38287c;}.bf{fill:#453087;}.bg{fill:#4d4595;}.bh{fill:#9699cc;}.bi{fill:#f5ae9f;}.bj{fill:#2f2658;}</style><clipPath id="a"><rect class="a" width="1280" height="1080" transform="translate(761 31)"/></clipPath><linearGradient id="b" y1="0.5" x2="1" y2="0.5" gradientUnits="objectBoundingBox"><stop offset="0.191" stop-color="#47a2e9"/><stop offset="0.658" stop-color="#8abcf7"/></linearGradient></defs><g class="b" transform="translate(-761 -31)"><g transform="translate(714.416)"><rect class="c" width="1294" height="424" transform="translate(39.584 719)"/><rect class="d" width="1294" height="750" transform="translate(39.584)"/><g transform="translate(112.225 258.967)"><g transform="translate(155.894 0)"><g class="e" transform="translate(0)"><path class="f" d="M573.835,109.138c-26.462,5.774-57.381,19.242-60.052,46.194-1.286,12.982,4.746,25.393,8.553,37.87s4.8,27.717-4.431,36.935c-5.1,5.088-12.323,7.273-19.228,9.314-42.687,12.612-86.7,27.59-118.081,59.153-37.789,38.007-51.1,98.406-32.8,148.779,4.711,12.967,11.51,25.482,21.755,34.722,12.81,11.552,29.814,17.042,46.267,22.224,37.831,11.915,75.9,23.884,115.222,29.048,75.108,9.864,151.464-5.466,226.993.356,107.74,8.305,215.058,59.29,319.954,33.334,33.475-8.283,68.484-28.676,75.526-62.435,2.808-13.461.74-27.483-2.726-40.79-4.356-16.726-11.041-33.093-21.75-46.66-22.093-27.99-59.254-41.786-78.791-71.617a81.111,81.111,0,0,1-7.337-73.266c4.443-11.116,11.421-21.337,13.749-33.08,3.354-16.919-3.719-34.642-15.082-47.618S1014.989,169.7,999.6,161.9c-47.1-23.855-97.944-35.231-149.6-44.3C760.132,101.828,664.025,89.447,573.835,109.138Z" transform="translate(-339.666 -99)"/><path class="f" d="M388.229,189.213c-13.405,4.171-26.759,10.85-34.721,22.413s-8.741,28.908,1.289,38.732c3.8,3.725,8.757,6.079,13.837,7.672,19.654,6.166,40.879,1.63,60.965-2.937,8.961-2.037,18.074-4.133,26.042-8.711,24.263-13.941,27.389-46.808,2.239-61.458C440.171,174.612,406.133,183.643,388.229,189.213Z" transform="translate(-342.374 -127.422)"/><path class="f" d="M1473.407,445.359c7.692,5.755,15.864,11.173,25.089,13.85s19.738,2.3,27.77-2.973a26.208,26.208,0,0,0,11.382-17.745,21.275,21.275,0,0,0-.068-7.18,22.279,22.279,0,0,0-3.874-8.64c-7.079-9.924-19.1-14.186-28.316-21.637-8.57-6.927-15.713-18.757-28.362-14.207C1452.541,395.636,1456.284,432.547,1473.407,445.359Z" transform="translate(-731.606 -199.374)"/></g></g><g transform="translate(0 158.609)"><path class="g" d="M328.777,709.7a965.5,965.5,0,0,1-1.612-161.873c.875-11.8-.145-24.151,3.924-35.475,4.515-12.568,15.858-21.315,29.259-15.125,6.566,3.033,11.546,8.759,15.242,14.976,11.673,19.639,11.576,43.142,12.3,65.252l4.089,125.2a60.029,60.029,0,0,1-10.694,7.633c-10.354,6.229-22.971,7.189-35.054,7.313-3.211.033-6.5.006-9.52-1.076S329.078,712.9,328.777,709.7Z" transform="translate(-178.473 -396.263)"/><path class="g" d="M230.333,733.461a731.75,731.75,0,0,1-4.684-81.114c-.043-26,.042-53.266,4.4-78.938l.137-.777c2.085-11.867,9.881-25.121,23.639-23.186,12.152,1.709,23.219,12.855,27.81,23.787,6.142,14.627,6.734,31.024,7.384,46.654q2.243,53.855,4.486,107.711a60.192,60.192,0,0,1-10.67,6.532c-10.334,5.326-22.946,6.112-35.028,6.18a31.578,31.578,0,0,1-9.522-.956C235.261,738.414,230.644,736.213,230.333,733.461Z" transform="translate(-143.868 -415.182)"/><path class="g" d="M1601.749,709.7a965.528,965.528,0,0,0,1.612-161.873c-.875-11.8.145-24.151-3.924-35.475-4.515-12.568-15.859-21.315-29.259-15.125-6.566,3.033-11.547,8.759-15.242,14.976-11.673,19.639-11.577,43.142-12.3,65.252q-2.045,62.6-4.089,125.2a60.039,60.039,0,0,0,10.694,7.633c10.354,6.229,22.971,7.189,35.054,7.313,3.21.033,6.5.006,9.52-1.076S1601.447,712.9,1601.749,709.7Z" transform="translate(-603.336 -396.263)"/><path class="g" d="M1699.972,733.461a731.894,731.894,0,0,0,4.684-81.114c.042-26-.042-53.266-4.4-78.938q-.068-.388-.136-.777c-2.086-11.867-9.881-25.121-23.639-23.186-12.152,1.709-23.219,12.855-27.81,23.787-6.142,14.627-6.734,31.024-7.384,46.654q-2.242,53.855-4.486,107.711a60.2,60.2,0,0,0,10.669,6.532c10.333,5.326,22.947,6.112,35.028,6.18a31.576,31.576,0,0,0,9.522-.956C1695.045,738.414,1699.661,736.213,1699.972,733.461Z" transform="translate(-637.72 -415.182)"/><rect class="h" width="887.388" height="87.24" transform="translate(106.384 235.092)"/><path class="i" d="M1150.888,664.525H263.5l23.58-77.606h840.228Z" transform="translate(-157.116 -428.362)"/><path class="j" d="M1113,750.695H407.588l.57-163.776H1113Z" transform="translate(-207.542 -428.362)"/><rect class="h" width="604.259" height="211.946" transform="translate(248.216 110.387)"/><path class="i" d="M1085.95,472.681H481.691l16.057-77.606h572.146Z" transform="translate(-233.475 -361.224)"/><g transform="translate(274.372 48.302)"><path class="k" d="M521.928,472H649.057v-8.915l-63.566-45.781-63.563,45.781Z" transform="translate(-521.928 -417.306)"/><path class="l" d="M595.765,435.381l44.48,33.834h-8.009l-36.471-27.741-36.471,27.741h-8.009Z" transform="translate(-532.202 -423.631)"/></g><g transform="translate(704.15 48.302)"><path class="k" d="M1183.088,472h127.129v-8.915l-63.565-45.781-63.563,45.781Z" transform="translate(-1183.088 -417.306)"/><path class="l" d="M1256.925,435.381l44.48,33.834H1293.4l-36.471-27.741-36.471,27.741h-8.009Z" transform="translate(-1193.362 -423.631)"/></g><rect class="j" width="369.834" height="288.481" transform="translate(361.682 33.851)"/><rect class="h" width="240.847" height="263.326" transform="translate(429.654 79.344)"/><rect class="m" width="190.002" height="263.326" transform="translate(455.345 79.344)"/><rect class="i" width="240.847" height="72.789" transform="translate(429.654 11.907)"/><path class="n" d="M916.4,353.084l27.555,34.789,27.555,34.789H861.288l27.555-34.789Z" transform="translate(-366.32 -346.529)"/><g transform="translate(429.654 0)"><g transform="translate(0 84.337)"><rect class="o" width="240.847" height="16.498"/><rect class="p" width="240.847" height="5.02"/></g><g transform="translate(21.874)"><path class="k" d="M794.461,427.814h197.1V413.99L893.009,343l-98.548,70.99Z" transform="translate(-794.461 -343)"/><path class="l" d="M908.938,371.028,977.9,423.493H965.482l-56.544-43.017-56.544,43.017H839.976Z" transform="translate(-810.39 -352.809)"/></g><rect class="q" width="193.239" height="158.679" transform="translate(23.802 227.383)"/><g transform="translate(91.005 290.091)"><path class="r" d="M900.81,883.094V817.862c0-38.124,58.834-38.124,58.834,0v65.232Z" transform="translate(-900.81 -789.269)"/><g transform="translate(5.096 5.542)"><path class="s" d="M908.649,877.237V822c0-32.279,48.643-32.279,48.643,0v55.233Z" transform="translate(-908.649 -797.795)"/><path class="t" d="M914.787,875.077V827.369c0-10.831,5.234-17.814,11.933-20.913a20.2,20.2,0,0,1,16.8,0c6.7,3.1,11.937,10.082,11.937,20.913V876.92H914.787v-1.844Zm4.026-47.707v45.866h32.615V827.369c0-9.243-4.263-15.109-9.719-17.632a15.884,15.884,0,0,0-13.177,0C923.073,812.26,918.813,818.126,918.813,827.369Z" transform="translate(-910.797 -800.186)"/><path class="t" d="M928.947,844.038h20.044a3.368,3.368,0,0,1,2.23.817,2.618,2.618,0,0,1,.928,1.97V882.3a2.627,2.627,0,0,1-.93,1.967l0,0a3.362,3.362,0,0,1-2.23.818H928.947a3.366,3.366,0,0,1-2.225-.817h-.007a2.632,2.632,0,0,1-.927-1.97V846.825a2.624,2.624,0,0,1,.931-1.967l0,0a3.378,3.378,0,0,1,2.232-.817Zm20.044,2.456H928.947a.391.391,0,0,0-.261.1h-.006a.314.314,0,0,0-.105.233V882.3a.314.314,0,0,0,.112.233h0a.4.4,0,0,0,.265.1h20.044a.4.4,0,0,0,.264-.1h0a.3.3,0,0,0,.105-.231V846.825a.317.317,0,0,0-.109-.233A.4.4,0,0,0,948.991,846.494Z" transform="translate(-914.647 -813.979)"/><path class="t" d="M938.969,814.529h0a13.207,13.207,0,0,1,13.18,13.15v5.037H925.788v-5.037a13.206,13.206,0,0,1,13.181-13.15Zm0,2.456h0a10.236,10.236,0,0,0-7.28,3.081,10.787,10.787,0,0,0-3.115,7.613v2.579h20.79v-2.579a10.786,10.786,0,0,0-3.115-7.613A10.229,10.229,0,0,0,938.969,816.985Z" transform="translate(-914.647 -803.651)"/></g></g><rect class="u" width="116.375" height="10.563" transform="translate(62.187 369.338)"/><rect class="v" width="125.697" height="16.353" transform="translate(57.477 380.026) rotate(-0.369)"/><g transform="translate(26.91 255.111)"><g transform="translate(3.944)"><rect class="w" width="13.25" height="92.248" transform="translate(2.53 1.559)"/><rect class="x" width="13.25" height="6.068" transform="translate(2.53 1.714)"/><rect class="y" width="18.31" height="3.7"/><rect class="x" width="13.25" height="5.205" transform="translate(2.53 88.601)"/><rect class="y" width="18.31" height="4.123" transform="translate(0 92.651)"/><g transform="translate(24.064)"><rect class="w" width="13.246" height="92.484" transform="translate(2.534 1.323)"/><rect class="x" width="13.246" height="6.068" transform="translate(2.512 1.714)"/><rect class="y" width="18.314" height="3.7"/><rect class="x" width="13.246" height="5.205" transform="translate(2.512 88.601)"/><rect class="y" width="18.314" height="4.123" transform="translate(0 92.651)"/></g></g><g transform="translate(0 96.651)"><rect class="w" width="47.105" height="31.563" transform="translate(1.579 4.365)"/><rect class="y" width="50.261" height="10.13" transform="translate(0 35.93)"/><rect class="x" width="47.105" height="7.073" transform="translate(1.579 4.365)"/><rect class="y" width="48.857" height="6.302" transform="translate(0.703)"/></g><g transform="translate(131.11)"><rect class="w" width="52.404" height="31.563" transform="translate(1.752 101.016)"/><rect class="y" width="55.913" height="10.13" transform="translate(0 132.581)"/><g transform="translate(2.921)"><rect class="w" width="13.246" height="92.248" transform="translate(2.534 1.559)"/><rect class="z" width="13.246" height="6.068" transform="translate(2.534 1.714)"/><rect class="y" width="18.314" height="3.7"/><rect class="z" width="13.246" height="5.205" transform="translate(2.534 88.601)"/><rect class="y" width="18.314" height="4.123" transform="translate(0 92.651)"/><g transform="translate(31.756)"><rect class="w" width="13.246" height="92.484" transform="translate(2.534 1.323)"/><rect class="z" width="13.245" height="6.068" transform="translate(2.512 1.714)"/><rect class="y" width="18.31" height="3.7"/><rect class="z" width="13.245" height="5.205" transform="translate(2.512 88.601)"/><rect class="y" width="18.31" height="4.123" transform="translate(0 92.651)"/></g></g><rect class="aa" width="52.404" height="7.073" transform="translate(1.752 101.016)"/><rect class="y" width="54.352" height="6.302" transform="translate(0.778 96.651)"/></g></g><rect class="ab" width="187.018" height="23.383" transform="translate(26.915 231.817)"/><rect class="ac" width="187.018" height="12.801" transform="translate(26.915 231.817)"/><rect class="ad" width="203.381" height="17.735" transform="translate(18.733 219.414)"/><g transform="translate(30.854 100.408)"><rect class="w" width="13.25" height="115.099" transform="translate(2.53 2.262)"/><rect class="x" width="13.25" height="5.205" transform="translate(2.53 112.155)"/><rect class="y" width="18.31" height="4.123" transform="translate(0 116.204)"/><rect class="w" width="13.246" height="115.393" transform="translate(26.598 1.967)"/><rect class="x" width="13.25" height="6.068" transform="translate(2.53 1.714)"/><rect class="y" width="18.31" height="3.7"/><rect class="x" width="13.246" height="6.068" transform="translate(26.576 1.714)"/><rect class="y" width="18.314" height="3.7" transform="translate(24.064)"/><rect class="x" width="13.246" height="5.205" transform="translate(26.576 112.155)"/><rect class="y" width="18.314" height="4.123" transform="translate(24.064 116.204)"/></g><g transform="translate(168.404 100.408)"><rect class="w" width="13.25" height="115.099" transform="translate(2.53 2.262)"/><rect class="x" width="13.25" height="5.205" transform="translate(2.53 112.155)"/><rect class="y" width="18.31" height="4.123" transform="translate(0 116.204)"/><rect class="w" width="13.246" height="115.393" transform="translate(26.598 1.967)"/><rect class="x" width="13.25" height="6.068" transform="translate(2.53 1.714)"/><rect class="y" width="18.31" height="3.7"/><rect class="x" width="13.246" height="6.068" transform="translate(26.576 1.714)"/><rect class="y" width="18.314" height="3.7" transform="translate(24.064)"/><rect class="x" width="13.246" height="5.205" transform="translate(26.576 112.155)"/><rect class="y" width="18.314" height="4.123" transform="translate(24.064 116.204)"/></g></g><circle class="p" cx="8.831" cy="8.831" r="8.831" transform="translate(541.247 48.302)"/><path class="ae" d="M6.4,0H25.813a6.4,6.4,0,0,1,6.4,6.4v55.48a0,0,0,0,1,0,0H0a0,0,0,0,1,0,0V6.4A6.4,6.4,0,0,1,6.4,0Z" transform="translate(269.644 129.233)"/><path class="ae" d="M6.4,0H25.813a6.4,6.4,0,0,1,6.4,6.4v55.48a0,0,0,0,1,0,0H0a0,0,0,0,1,0,0V6.4A6.4,6.4,0,0,1,6.4,0Z" transform="translate(320.347 129.233)"/><path class="ae" d="M6.4,0H25.813a6.4,6.4,0,0,1,6.4,6.4v55.48a0,0,0,0,1,0,0H0a0,0,0,0,1,0,0V6.4A6.4,6.4,0,0,1,6.4,0Z" transform="translate(508.857 129.233)"/><path class="ae" d="M6.4,0H25.813a6.4,6.4,0,0,1,6.4,6.4v55.48a0,0,0,0,1,0,0H0a0,0,0,0,1,0,0V6.4A6.4,6.4,0,0,1,6.4,0Z" transform="translate(559.56 129.233)"/><path class="ae" d="M6.4,0H25.813a6.4,6.4,0,0,1,6.4,6.4v55.48a0,0,0,0,1,0,0H0a0,0,0,0,1,0,0V6.4A6.4,6.4,0,0,1,6.4,0Z" transform="translate(373.65 129.233)"/><path class="ae" d="M6.4,0H25.813a6.4,6.4,0,0,1,6.4,6.4v55.48a0,0,0,0,1,0,0H0a0,0,0,0,1,0,0V6.4A6.4,6.4,0,0,1,6.4,0Z" transform="translate(269.644 231.938)"/><path class="ae" d="M6.4,0H25.813a6.4,6.4,0,0,1,6.4,6.4v55.48a0,0,0,0,1,0,0H0a0,0,0,0,1,0,0V6.4A6.4,6.4,0,0,1,6.4,0Z" transform="translate(320.347 231.938)"/><path class="ae" d="M6.4,0H25.813a6.4,6.4,0,0,1,6.4,6.4v55.48a0,0,0,0,1,0,0H0a0,0,0,0,1,0,0V6.4A6.4,6.4,0,0,1,6.4,0Z" transform="translate(373.65 231.938)"/><path class="ae" d="M6.4,0H22.071a6.4,6.4,0,0,1,6.4,6.4V54.69a0,0,0,0,1,0,0H0a0,0,0,0,1,0,0V6.4A6.4,6.4,0,0,1,6.4,0Z" transform="translate(117.759 251.439)"/><path class="ae" d="M6.4,0H22.071a6.4,6.4,0,0,1,6.4,6.4V54.69a0,0,0,0,1,0,0H0a0,0,0,0,1,0,0V6.4A6.4,6.4,0,0,1,6.4,0Z" transform="translate(162.572 251.439)"/><path class="ae" d="M6.4,0H22.071a6.4,6.4,0,0,1,6.4,6.4V54.69a0,0,0,0,1,0,0H0a0,0,0,0,1,0,0V6.4A6.4,6.4,0,0,1,6.4,0Z" transform="translate(209.682 251.439)"/><path class="ae" d="M0,0H32.211a0,0,0,0,1,0,0V55.48a6.4,6.4,0,0,1-6.4,6.4H6.4A6.4,6.4,0,0,1,0,55.48V0A0,0,0,0,1,0,0Z" transform="translate(828.609 191.111) rotate(-180)"/><path class="ae" d="M0,0H32.211a0,0,0,0,1,0,0V55.48a6.4,6.4,0,0,1-6.4,6.4H6.4A6.4,6.4,0,0,1,0,55.48V0A0,0,0,0,1,0,0Z" transform="translate(777.906 191.111) rotate(-180)"/><path class="ae" d="M0,0H32.211a0,0,0,0,1,0,0V55.48a6.4,6.4,0,0,1-6.4,6.4H6.4A6.4,6.4,0,0,1,0,55.48V0A0,0,0,0,1,0,0Z" transform="translate(724.603 191.111) rotate(-180)"/><path class="ae" d="M0,0H32.211a0,0,0,0,1,0,0V55.48a6.4,6.4,0,0,1-6.4,6.4H6.4A6.4,6.4,0,0,1,0,55.48V0A0,0,0,0,1,0,0Z" transform="translate(828.609 293.817) rotate(-180)"/><path class="ae" d="M0,0H32.211a0,0,0,0,1,0,0V55.48a6.4,6.4,0,0,1-6.4,6.4H6.4A6.4,6.4,0,0,1,0,55.48V0A0,0,0,0,1,0,0Z" transform="translate(777.906 293.817) rotate(-180)"/><path class="ae" d="M0,0H32.211a0,0,0,0,1,0,0V55.48a6.4,6.4,0,0,1-6.4,6.4H6.4A6.4,6.4,0,0,1,0,55.48V0A0,0,0,0,1,0,0Z" transform="translate(724.603 293.817) rotate(-180)"/><path class="ae" d="M0,0H28.469a0,0,0,0,1,0,0V48.291a6.4,6.4,0,0,1-6.4,6.4H6.4a6.4,6.4,0,0,1-6.4-6.4V0A0,0,0,0,1,0,0Z" transform="translate(935.681 306.129) rotate(-180)"/><path class="ae" d="M0,0H28.469a0,0,0,0,1,0,0V48.291a6.4,6.4,0,0,1-6.4,6.4H6.4a6.4,6.4,0,0,1-6.4-6.4V0A0,0,0,0,1,0,0Z" transform="translate(888.571 306.129) rotate(-180)"/><line class="af" x2="157.959" transform="translate(260.117 211.262)"/><path class="f" d="M1688.684,775.635a53.341,53.341,0,0,0-17.208-10.615c-11.112-4.058-25.009-4.258-37.259-1.865a108.772,108.772,0,0,0-32.631,12.564c-8.969,5.055-17.46,10.882-28.722,13.492-7.989,1.851-16.68,1.907-25.172,2.187-17.925.591-37.205,2.73-49.612,10.975-4.957,3.294-8.727,7.509-15.062,9.643-5.753,1.938-12.593,1.809-19.094,2.048-18.084.665-37.144,5.125-47.081,14.753h292.62V821.84C1707.441,805.723,1703.828,789.061,1688.684,775.635Z" transform="translate(-560.743 -489.497)"/><path class="f" d="M120.619,775.635a53.344,53.344,0,0,1,17.208-10.615c11.112-4.058,25.009-4.258,37.259-1.865a108.786,108.786,0,0,1,32.631,12.564c8.969,5.055,17.459,10.882,28.721,13.492,7.99,1.851,16.681,1.907,25.173,2.187,17.925.591,37.2,2.73,49.612,10.975,4.957,3.294,8.727,7.509,15.062,9.643,5.754,1.938,12.594,1.809,19.095,2.048,18.084.665,37.144,5.125,47.08,14.753H99.842V821.84C101.862,805.723,105.475,789.061,120.619,775.635Z" transform="translate(-99.842 -489.497)"/></g></g><g transform="translate(148.222 702.994)"><path class="ag" d="M273.771,955.619l-103.386,59.012L67,955.619V837.6l103.386-59.012L273.771,837.6Z" transform="translate(-67 -623.961)"/><path class="ah" d="M150.258,767l-41.629,23.788L67,767V719.424l41.628-23.788,41.629,23.788Z" transform="translate(-67 -624.272)"/><path class="ai" d="M245.054,695.9,203.425,719.69,161.8,695.9V648.326l41.629-23.788,41.628,23.788Z" transform="translate(-66.645 -624.538)"/></g><g transform="translate(0 706.17)"><path class="aj" d="M902.3,2084.73s-98.727-211.663-103.983-311.441,53.725-77.682,76.254-6.4,76.254,22.756,13.865-76.027,31.2-189.45,62.389-128.519-19.477,301.871,15.845,308.276,18.445-110.4,55.043-112.168,60.233,111.148,6.8,203.748-43.6,152.243-69.027,169.743S902.3,2084.73,902.3,2084.73Z" transform="translate(-797.985 -1542.603)"/><path class="ak" d="M873.05,1928.81s-25.731-91.455-16.631-133.047,16.631-122.179,16.631-122.179" transform="translate(-742.142 -1413.112)"/><path class="ak" d="M875.472,1780.1s-42.244-53.727-42.244-80.155" transform="translate(-763.143 -1387.051)"/><path class="ak" d="M854.471,1816.508c1.967,4.043,109.064-78.437,111.4-116.563" transform="translate(-742.142 -1387.051)"/></g><g transform="translate(170.455 277.979)"><path class="al" d="M901,221.85c17.4-3.029,31.806-15.075,48.442-21.007,15.976-5.7,34.412-5.349,49.33,2.721,9.464,5.12,17.209,13.052,26.808,17.913,16.993,8.6,37.26,6.489,56.04,3.3s38.3-7.2,56.578-1.846c20.757,6.085,37.418,24.8,40.7,46.177h-347c-2.649,0-2.032-11.391-1.942-12.711.938-13.779,7.445-24.918,20.858-29.927C866.862,220.48,884.434,224.734,901,221.85Z" transform="translate(-450.006 -157.521)"/><path class="al" d="M320.469,345.554c9.88-1.106,18.059-5.506,27.506-7.672,9.072-2.08,19.54-1.954,28.011.994,5.374,1.87,9.771,4.767,15.221,6.542,9.649,3.143,21.157,2.37,31.82,1.206s21.747-2.631,32.126-.674c11.786,2.222,21.246,9.056,23.108,16.865H281.231c-1.5,0-1.154-4.16-1.1-4.643.533-5.032,4.228-9.1,11.844-10.93C301.084,345.055,311.062,346.608,320.469,345.554Z" transform="translate(-280.056 -200.642)"/><path class="al" d="M1289.059,148.95c9.88-1.106,18.059-5.506,27.506-7.672,9.072-2.08,19.54-1.954,28.011.994,5.374,1.87,9.771,4.767,15.221,6.542,9.649,3.143,21.156,2.37,31.82,1.206s21.747-2.631,32.125-.674c11.786,2.222,21.246,9.056,23.108,16.865h-197.03c-1.5,0-1.155-4.16-1.1-4.642.533-5.033,4.228-9.1,11.844-10.93C1269.674,148.451,1279.652,150,1289.059,148.95Z" transform="translate(-579.474 -139.866)"/><path class="al" d="M480.961,265.412c9.88-1.107,18.059-5.506,27.506-7.672,9.072-2.08,19.54-1.954,28.011.994,5.374,1.869,9.771,4.767,15.221,6.542,9.649,3.143,21.157,2.37,31.82,1.206s21.747-2.631,32.126-.674c11.786,2.223,21.246,9.057,23.108,16.865H441.722c-1.5,0-1.155-4.16-1.1-4.642.533-5.032,4.228-9.1,11.844-10.93C461.576,264.912,471.554,266.466,480.961,265.412Z" transform="translate(-329.669 -175.868)"/></g><g transform="translate(1129.661 650.058)"><path class="aj" d="M902.3,2084.73s-98.727-211.663-103.983-311.441,53.725-77.682,76.254-6.4,76.254,22.756,13.865-76.027,31.2-189.45,62.389-128.519-19.477,301.871,15.845,308.276,18.445-110.4,55.043-112.168,60.233,111.148,6.8,203.748-43.6,152.243-69.027,169.743S902.3,2084.73,902.3,2084.73Z" transform="translate(-797.985 -1542.603)"/><path class="ak" d="M873.05,1928.81s-25.731-91.455-16.631-133.047,16.631-122.179,16.631-122.179" transform="translate(-742.142 -1413.112)"/><path class="ak" d="M875.472,1780.1s-42.244-53.727-42.244-80.155" transform="translate(-763.143 -1387.051)"/><path class="ak" d="M854.471,1816.508c1.967,4.043,109.064-78.437,111.4-116.563" transform="translate(-742.142 -1387.051)"/></g><g transform="translate(1065.079 1002.614)"><path class="am" d="M1831.579,597.4l-97.789,56.112L1636,597.4V485.175l97.789-56.112,97.789,56.112Z" transform="translate(-1636 -429.063)"/></g><g transform="translate(1015.318 30.703)"><path class="ag" d="M1835.225,287.142l-56.112,32.026L1723,287.142V223.089l56.113-32.026,56.112,32.026Z" transform="translate(-1617.127 -58.722)"/><path class="an" d="M1842.7,162.234l-33.35,19.057L1776,162.234V124.12l33.35-19.057,33.35,19.057Z" transform="translate(-1614.015 -63.773)"/><path class="ao" d="M1763.811,185.17l-70.405,39.7L1623,185.17v-79.4l70.405-39.7,70.405,39.7Z" transform="translate(-1623 -66.063)"/></g><g transform="translate(139.752 30.703)"><path class="an" d="M157.7,255.922l-33.35,19.057L91,255.922V217.808l33.35-19.057,33.35,19.057Z" transform="translate(-91 -32.531)"/><path class="ap" d="M248.811,160.858l-70.405,39.7L108,160.858v-79.4l70.405-39.7,70.405,39.7Z" transform="translate(-90.002 -41.751)"/><path class="aq" d="M181.29,313.483l-20.645,11.911L140,313.483V289.662l20.645-11.911,20.645,11.911Z" transform="translate(-88.122 -27.892)"/></g><g transform="translate(377.741 719.738)"><g transform="translate(39.638)"><path class="ar" d="M535.425,810.743s7.017-2.147,9.771-15.108c.476-2.226,1.844-7.937,2.216-11.333,1.3-12.01-5.715-21.1-21.191-21.1-6.822,0-16.4,3.962-22.477,15.48-7.349,13.92-1.657,17.509-7.923,23.951s-6.632,11.054-2.029,17.322,7.74,11.059,5.532,16.029-2.952,18.61,10.038,13.267,26.059-32.238,26.059-32.238Z" transform="translate(-476.834 -763.204)"/><g transform="translate(32.526 1.493)"><rect class="as" width="15.16" height="13.727" transform="translate(10.902 43.944)"/><path class="as" d="M548.459,796.331c-1.31,5.648-9.21,16.328-16.332,16.328-6.119,0-15.966-8.882-16.392-14.742,0,0-1.526-10.461-1.746-13.982-.644-10.405,9.088-18.872,18.139-18.872h0c9.054,0,19.136,8.463,18.4,18.872A96.408,96.408,0,0,1,548.459,796.331Z" transform="translate(-513.958 -765.064)"/></g><g transform="translate(21.786 54.822)"><path class="at" d="M557.328,840.677l-19.95-9.155s-2.037,3.1-7.087,3.1c-5.538,0-8.078-3.1-8.078-3.1s-15.136,7.917-20.732,10.442c0,0-3.24,26.925,2.532,44.552,5.729,17.484-2.532,37.891-2.532,37.891s11.952,6.708,26.115,6.708c15.2,0,29.213-6.708,29.213-6.708s-9.586-19.012-2.829-37.592C562.1,864.468,557.328,840.677,557.328,840.677Z" transform="translate(-500.574 -831.522)"/></g><path class="as" d="M562.364,797.52c-.741,2.183-2.646,3.515-4.266,2.967s-2.338-2.761-1.6-4.944,2.637-3.509,4.259-2.967S563.1,795.33,562.364,797.52Z" transform="translate(-489.778 -768.982)"/><path class="ar" d="M549.655,788.689s-3.429-.36-3.613,4.056c0,0,0-8.889-3.226-14.138,0,0-4.608,6.631-12.9,6.915s-12.755,2.836-14.945,8.652c0,0-4.216-9.485-1.269-18.05s13.53-12.111,19.346-11.887S555.783,772.506,549.655,788.689Z" transform="translate(-481.175 -763.406)"/><g transform="translate(78.515 64.033)"><path class="at" d="M571.329,843s10.486,2.115,13.245,17.1c1.509,8.208,6.786,28.651,10.629,48.193a8.913,8.913,0,0,1-6.125,10.25l-.187.057a12.125,12.125,0,0,1-7.875-.61s-6.627-26.869-9.193-45.013c-.816-5.779-.49-10.7-.491-14.853C571.32,848.234,571.329,843,571.329,843Z" transform="translate(-571.269 -843.001)"/></g><path class="at" d="M473.52,899.251c-.413,4.193.353,7.626,5.669,10.32,3.757,1.909,10.131-2.8,11.579-6.749,2.228-6.076,6.192-20.313,6.192-20.313.412-1.325.035-39.265-.847-37.977C486.155,859.089,473.52,899.251,473.52,899.251Z" transform="translate(-473.424 -779.264)"/></g><path class="au" d="M482.4,979.123s-7.367-.627-8.462,5.017,4.389,7.994,6.27,7.994,5.5-.233,5.5-.233-.154,2.938-6.112,3.565-14.277,1.527-19.449,2-13.638-2.664-15.363-8.779,3.617-10.063,9.876-9.562C462.486,979.751,482.4,979.123,482.4,979.123Z" transform="translate(-428.063 -805.85)"/><g transform="translate(0 134.613)"><path class="av" d="M563.778,972.562a55.858,55.858,0,0,0,21.3,4.742,25.59,25.59,0,0,1,6.31.54,6.648,6.648,0,0,1,4.682,3.913c.994,2.941-1.2,6.192-4.031,7.472s-6.075,1.094-9.172.874c-7.513-.534-15.327-1.229-21.792-5.092a2.316,2.316,0,0,1-.9-.8,2.459,2.459,0,0,1,.13-1.98l3.556-9.848" transform="translate(-450.894 -939.141)"/><path class="av" d="M491.439,972.562a55.858,55.858,0,0,1-21.3,4.742,25.59,25.59,0,0,0-6.31.54,6.643,6.643,0,0,0-4.681,3.913c-1,2.941,1.2,6.192,4.031,7.472s6.074,1.094,9.172.874c7.514-.534,15.327-1.229,21.792-5.092a2.313,2.313,0,0,0,.905-.8,2.465,2.465,0,0,0-.13-1.98l-3.556-9.848" transform="translate(-430.918 -939.141)"/><path class="aw" d="M584.135,931.447c16.93-1.567,25.609.322,26.023,10.033.626,14.735-18.5,20.692-56.12,26.962s-62.39,12.54-62.39,12.54l-3.135-15.049S567.206,933.015,584.135,931.447Z" transform="translate(-436.767 -930.956)"/><path class="ax" d="M450.065,931.447c-16.931-1.567-25.609.322-26.022,10.033-.627,14.735,18.5,20.692,56.119,26.962s62.39,12.54,62.39,12.54l3.135-15.049S467,933.015,450.065,931.447Z" transform="translate(-424.028 -930.956)"/></g><path class="au" d="M600.5,979.123s7.367-.627,8.462,5.017-4.389,7.994-6.27,7.994-5.5-.233-5.5-.233.155,2.938,6.111,3.565,14.277,1.527,19.451,2,13.638-2.664,15.361-8.779-3.617-10.063-9.875-9.562C620.408,979.751,600.5,979.123,600.5,979.123Z" transform="translate(-458.237 -805.85)"/><path class="as" d="M544.346,937.873l1.3,8.829,37.637-14.138a5.967,5.967,0,0,0,3.487-7.684c-.012-.032-.024-.064-.037-.1h0a5.967,5.967,0,0,0-7.741-3.358q-.186.073-.367.159Z" transform="translate(-447.797 -794.378)"/><path class="f" d="M501.627,816.079H479.086L467.815,835.6l11.271,19.521h22.541L512.9,835.6Z" transform="translate(-432.678 -773.65)"/><path class="as" d="M486.009,900.24s-15.941-35.366-14.757-38.307c.638-1.586,3.178-8.153,3.818-9.536,3.757-8.167-7.409-18.5-14.138.79-1.188,3.4.722,7.962,1.406,9.952a17.216,17.216,0,0,1,.64,3.011l7.956,37.362a7.448,7.448,0,0,0,8.7,5.937c.189-.035.375-.079.56-.128A7.649,7.649,0,0,0,486.009,900.24Z" transform="translate(-431.244 -778.811)"/><path class="ay" d="M519.37,932.828H502.135l-8.617,14.926,8.617,14.926H519.37l8.617-14.926Z" transform="translate(-437.756 -796.713)"/><path class="as" d="M541.146,950.367l-2.186-8.346a15.838,15.838,0,0,1-10.41.316l2.228,3.749c1.257.86,1.747.743,1.844,1.145.227.941-3.346,2.258-5.913,2.409-4.485.265-10.252-.806-9.574,2.006,1.135,4.71,7.6,4.747,10.718,3.93A57.394,57.394,0,0,0,541.146,950.367Z" transform="translate(-442.411 -798.53)"/></g><g transform="translate(779.222 777.105)"><g transform="translate(137.668 486.096)"><rect class="as" width="14.207" height="11.66" transform="matrix(0.367, -0.93, 0.93, 0.367, 0, 13.218)"/><path class="ar" d="M1457.532,1007.89l6.026-15.28,7.606,2.989,6.771,2.664-14.225,36.1s-5.407.893-5.88-8.947C1457.445,1017.672,1457.532,1007.89,1457.532,1007.89Z" transform="translate(-1447.036 -989.504)"/></g><path class="at" d="M1383.1,802.636s-12.305-.963-16.956,19.76c-4.5,19.974-17.728,62.84,7.244,71.183a205.119,205.119,0,0,0,10.9-43.631C1386.641,832.183,1385.413,808.93,1383.1,802.636Z" transform="translate(-1348.47 -578.505)"/><path class="az" d="M1409.242,840.6s-8.641,91.978-9.78,122.174c-1.206,32.122,9.78,122.191,9.78,122.191h19.314S1440.7,994,1444.491,962.779c7.087-58.44,6.475-122.174,6.475-122.174Z" transform="translate(-1332.356 -563.494)"/><g transform="translate(55.555 521.53)"><rect class="as" width="14.211" height="11.666" transform="translate(23.742)"/><path class="ar" d="M1413.937,1024.141h16.431v15.448h-38.792s-2.817-4.705,6.166-8.75C1404.81,1027.636,1413.937,1024.141,1413.937,1024.141Z" transform="translate(-1391.157 -1012.474)"/></g><path class="az" d="M1411.685,951.958l4.988-89.121h2.754l7.067-22.224H1372.06s-8.129,90.927,0,114.437c33.092,95.66,110.109,109.281,110.109,109.281l6.2-16.41Z" transform="translate(-1344.579 -563.491)"/><path class="ar" d="M1456.529,776.962l9.452-99.127a32.717,32.717,0,0,0-29.456-35.683h-.017a32.725,32.725,0,0,0-35.686,29.467v0l-9.446,99.126Z" transform="translate(-1335.515 -642)"/><path class="ba" d="M1466.779,903.942s-19.21,5.806-51.316,4.243c-19.963-.961-46.883-12.284-46.883-12.284l35.226-187.157,64.436,13.71-2.662,88.923Z" transform="translate(-1344.526 -615.617)"/><g transform="translate(67.668 71.56)"><path class="as" d="M1432.909,723.5l2.7-28.429-18.651-1.778-2.519,26.3-14.331-2.989c-2.029,11.608,7.515,20.338,20.4,22.891,13.756,2.74,23.626-1.189,26.717-12.9Z" transform="translate(-1399.838 -693.286)"/><path class="bb" d="M1411.293,705.083a27.144,27.144,0,0,0,9.155,2.563,27.5,27.5,0,0,0,9.491-.787l1.122-11.793-18.652-1.779Z" transform="translate(-1395.311 -693.287)"/></g><path class="ba" d="M1474.75,818.866c-2.4-18.324-3.02-23.018-7.018-58.392-2.738-24.129-22.321-40.088-26.6-41.983,0,0-7.846,38.478-1.462,48.916,5.857,9.565,9.495,51.292,9.495,51.292a12.519,12.519,0,0,0,12.7,12.332h0C1468.793,830.936,1475.658,825.731,1474.75,818.866Z" transform="translate(-1317.415 -611.764)"/><path class="as" d="M1355.434,834.113a21.612,21.612,0,0,0,2.39,27.546c2.989,3.23,7.18,3.968,8.161,1.247a23.922,23.922,0,0,0,.336-8.024c-.248-7.052-1.8-13.229.875-10.106,1.12,1.307,2.584,3.737,4.173,2.386,2.429-2.055-8.26-13.237-8.26-13.237Z" transform="translate(-1351.251 -566.134)"/><path class="ba" d="M1410.619,708.807c-9.732-2.033-13.772,2-23.692,22.224-6.446,13.139-25.037,52.353-30.627,74.842-4.646,18.726-4.959,76.363-4.959,76.363a15.337,15.337,0,0,0,6.778,2.731c5.85,1.335,7.892-1.072,7.892-1.072l15.2-70.214a417.593,417.593,0,0,1,20.864-51.048c6.707-13.209,9.681-17.618,10.978-19.992C1422.244,725.944,1420.747,710.907,1410.619,708.807Z" transform="translate(-1351.341 -615.778)"/><g transform="translate(29.584 104.049)"><path class="at" d="M1376.794,845.041a4.262,4.262,0,0,1-.791-8.447c69.152-13.177,79.187-90.8,82.477-116.313a4.256,4.256,0,0,1,8.443,1.076l0,.014c-3.484,27.014-14.112,109.24-89.321,123.589A3.732,3.732,0,0,1,1376.794,845.041Z" transform="translate(-1372.543 -716.572)"/></g><g transform="translate(51.938 0.071)"><path class="as" d="M1404.821,702c4.737,16.478,12.033,17.431,21.2,16.922h0a27.389,27.389,0,0,0,26.738-28.022v-.025l-.423-17.883a27.4,27.4,0,0,0-28.047-26.741h0c-15.133.363-25.474,19.336-25.118,34.458C1399.171,680.705,1402.953,695.466,1404.821,702Z" transform="translate(-1384.375 -640.396)"/><path class="ar" d="M1425,645.761a28.351,28.351,0,0,1,29.023,27.652l.219,9.5c-21.112,8.945-45.876-4.588-50.456-15.743.04,1.906.017,4.162-.011,5.8-.094,4.331-.986,7.169-6.258,8.968l-.173-7.169A28.347,28.347,0,0,1,1425,645.761Z" transform="translate(-1385.098 -640.588)"/><path class="ar" d="M1435.836,686.162s-7.721,3.721-1.419,15.27c4.069,7.455.074,13.141-6.926,17.275-9.244,5.458-9.279,29.942-3.763,37.582,6.848,9.475,22.749,18.2,40.7.314,14-13.935,2.006-52.234-.561-68.428-2.592-16.429-10.727-48.089-44.8-46.028Z" transform="translate(-1376.507 -642.051)"/><path class="ar" d="M1397.8,696.33s-.4,19.12-7.426,30.138c-6.939,10.89,7.186,24.875,22.654,17.563,9.235-4.37,9.014-10.861,8.521-31.388l-.592-14.091Z" transform="translate(-1388.564 -620.595)"/></g><path class="bc" d="M1424.472,796.993l-48.88-6.54-19.244-45.4,29.637-38.863,48.88,6.54,19.244,45.4Z" transform="translate(-1349.362 -616.627)"/><g transform="translate(63.162 152.309)"><g transform="translate(24.054 14.362)"><path class="as" d="M1477.74,791.376a12.519,12.519,0,0,1,2.865,17.47l-.007.01h0a12.519,12.519,0,0,1-17.471,2.862l-.007,0s-17.363-12.472-22.742-17.137c-7.07-6.148-26.53-26.487-26.53-26.487l3.837-6.637s21.313,12.588,28.689,16.272C1454.031,781.547,1477.74,791.376,1477.74,791.376Z" transform="translate(-1413.848 -761.453)"/><path class="ba" d="M1466.081,784.034c-4.688-3.693-12.079-4.959-14.852-5.273a20.027,20.027,0,0,1,2.428,14.182c-1.32,5.489-7.42,8.327-7.42,8.327a16.254,16.254,0,0,0,6.581,5.4c8.094,3.736,13.925-1.217,16.575-4.91C1473.776,795.651,1471.248,788.09,1466.081,784.034Z" transform="translate(-1401.045 -754.611)"/></g><path class="as" d="M1420.668,772.162s-17.842.324-23.821-17.353c-1.406-4.175,3.582-5.979,10.066,1.286,4.382,4.92,11.609,8.654,10.806,4.484-.325-1.681-1.553-6.058.4-6.8,2.96-1.139,6.388,11.746,6.388,11.746Z" transform="translate(-1396.609 -751.16)"/></g></g><g transform="translate(833.218 327.923)"><g transform="translate(0 106.433)"><g transform="translate(7.839 61.812)"><path class="bd" d="M1268.776,468.51a38.486,38.486,0,0,0,1.053,4.711c.466,1.2,4.4.093,4.665-.683s-1.239-6.484-1.239-6.484" transform="translate(-1259.786 -466.054)"/><path class="be" d="M1270.958,476.844c.34,1.295.77,3.778.77,3.778l-3.936,1.714-.646-.607a7.293,7.293,0,0,1-2.183,1.742,16.322,16.322,0,0,1-3.81,1.056c-3.436.371-5.964-.276-6.167-.752-.853-1.99,3.706-2.524,4.61-2.762a6.041,6.041,0,0,0,4.318-4.327c.2-1.043-.057-1.227.526-1.194a1.386,1.386,0,0,1,.984.462,2.485,2.485,0,0,0,2.8.65,2.976,2.976,0,0,0,1.4-1.161A1.717,1.717,0,0,1,1270.958,476.844Z" transform="translate(-1254.881 -469.368)"/></g><path class="bf" d="M1276.988,388.9a66.66,66.66,0,0,1-20.094.477c.869,2.492,3,5.685,3.813,9.195,2.681,11.589,3.612,27.156,4.292,36.787,0,0-1.287,2.472-5.411.59-6.163-15.22-16.923-46.067-16.823-52.759.127-8.519,21.391-10.576,36.974-12.675" transform="translate(-1242.764 -370.512)"/><g transform="translate(16.133 70.726)"><path class="bd" d="M1284.484,481.475a38.552,38.552,0,0,0,.22,4.821c.252,1.263,4.323.856,4.713.137s-.1-6.6-.1-6.6" transform="translate(-1273.625 -479.833)"/><path class="be" d="M1284.67,490.55c.111,1.334.1,3.854.1,3.854l-4.173,1.005-.531-.709a7.294,7.294,0,0,1-2.452,1.337,16.354,16.354,0,0,1-3.935.38c-3.448-.231-5.825-1.306-5.944-1.81-.494-2.107,4.087-1.842,5.02-1.921a6.041,6.041,0,0,0,5-3.512c.379-.993.156-1.218.725-1.085a1.385,1.385,0,0,1,.889.625,2.485,2.485,0,0,0,2.642,1.125,2.979,2.979,0,0,0,1.575-.9A1.718,1.718,0,0,1,1284.67,490.55Z" transform="translate(-1267.701 -482.735)"/></g><path class="bf" d="M1327.681,371.471a198.725,198.725,0,0,1-21.722.693c-2.775,0-23.757,3.937-25.764,7.493-3.3,5.848,2.153,40.03,1.648,64.5,0,0,2.516,2.1,6.965.126,1.107-12.023,8.209-40.382,3.31-53.623,11.568,1.537,20.9,3.062,31.416-.423,2.462-.816,4.3-2.555,5.409-5.737S1329.474,374.327,1327.681,371.471Z" transform="translate(-1255.602 -370.851)"/></g><g transform="translate(9.713 0)"><path class="bg" d="M1291.714,339.585c.089-4.245.839-44.458,1.93-58.658.552-7.164-.882-16.426,13.3-17.935a65.364,65.364,0,0,1,8.386,0c4.735.794,13.432,3.6,13.432,13.637,0,14.663.149,57.823.016,62.956Z" transform="translate(-1269.759 -226.066)"/><path class="bh" d="M1341.51,276.832c0,5.4-.026,61.192-.026,61.192H1338.4a10.264,10.264,0,0,1-10.181-10.343V262.989S1341.51,263.045,1341.51,276.832Z" transform="translate(-1282.645 -226.119)"/><path class="bh" d="M1348.949,307.54c0-5.308-.05-26.519-.05-26.519s5.931,33.194,9.828,51.047c1.216,5.58-3.915,13.056-9.627,13.056h-.151Z" transform="translate(-1289.947 -232.485)"/><path class="bh" d="M1287.607,278.91s-17.463,8.27-21.574,10.13c-2.985,1.35-6.052.283-7.24-1.875-1.014-1.841-1.255-5.277,2.862-7.439s26.512-14.525,26.512-14.525Z" transform="translate(-1257.915 -226.901)"/><path class="bh" d="M1353.25,309.25s-17.875-28.855-20.563-32.471c-1.436-1.927-1.283-6.239.5-7.939,1.516-1.453,3.508-3.313,6.654.108s26.149,33.41,26.149,33.41Z" transform="translate(-1283.881 -227.54)"/><path class="bh" d="M1285.964,251.09s-16.047,25.516-18.4,29.355c-1.716,2.8-4.855,3.634-7.047,2.512-1.871-.954-4-3.664-1.8-7.764s23.122-27.551,23.122-27.551Z" transform="translate(-1257.778 -220.701)"/><path class="bh" d="M1296.533,264.775c2.276-1.215,7.734-1.786,7.734-1.786l-15.234,79.705s-5.8.231-4.8-8.677c2.536-22.493,2.649-28.158,6.737-61.215C1291.236,270.362,1291.765,267.317,1296.533,264.775Z" transform="translate(-1267.078 -226.119)"/><g transform="translate(24.028 13.206)"><path class="bi" d="M1295.508,242.244a4.278,4.278,0,0,1,.243-4.745c.843-1.3,3.875-5.482,6.785-6.478l-1.591,12.7a6.711,6.711,0,0,1-1.76.171l-.69.846Z" transform="translate(-1294.917 -228.04)"/><rect class="bg" width="14.748" height="6.894" transform="matrix(0.62, -0.785, 0.785, 0.62, 0.831, 11.571)"/></g><g transform="translate(25.936)"><path class="bi" d="M1320.46,215.387c-5.937-9.288-21.458-5-20.467,7.987l-.019-.074s.019.153.046.421c.009.1.013.19.024.291a40.5,40.5,0,0,1,.113,4.93,7.637,7.637,0,0,1-.47,2.087c-.406,1.212.765,1.2,1.025,1.148.715-.138,1.269-.272,1.269-.272.05.168.1.343.146.5a12.357,12.357,0,0,0,1.092,2.709c1.666,2.918,4.047,3.12,6.508,2.982v6.385h8.386s-2.034-4.726-2.2-7.122c-.084-1.234,1.949-2.617,2.725-3.377a12.439,12.439,0,0,0,3.44-5.863C1323.48,222.745,1322.818,219.062,1320.46,215.387Z" transform="translate(-1298.48 -207.555)"/><path class="bg" d="M1326.2,215.55c-.087-1.346-1.262-2.657-4.231-4.021-3.314-1.52-2.264-3.4-4.693-4.692a6.4,6.4,0,0,0-5.771-.276c-1.074.507-1.529.578-4.388.134a3.9,3.9,0,0,0-4.474,3.149c-.327,1.42-.358,2.542-3.065,3.537-3.051,1.119-1.653,7.608,1.327,7.555,2.18-.045,2.538-3.354,4.968-2.176s2.262,4.786,5.427,5.423c.736.153,1.881-.4,2.29-1.942.4-1.491,3.047-.316,3.188,1.487.085,1.069.031,4.394-2.513,3.619-1.47-.447-3.021.824-.825,2.438,1.126.831.565,3.011,1.405,3.943h0s.008.007.012.007a1.16,1.16,0,0,0,.383.276c2.974,1.4,6.83-2.445,7.5-3.488.692-1.077,2.273-1.409,3.035-3.533.559-1.573.219-3.012-.246-5.412S1326.355,217.764,1326.2,215.55Z" transform="translate(-1297.867 -206)"/></g><path class="bh" d="M1338.329,359.75s15.015-27.42,17.255-31.33c3.988-6.966,10.372-7.588,12.736-6.891,0,0,2.976,2.755.439,8.711-1.823,4.278-26.133,33.5-26.133,33.5Z" transform="translate(-1286.216 -246.708)"/><path class="bi" d="M1337.654,381.465a7.971,7.971,0,0,0-2.692,1.987l3.942,3.194a4.216,4.216,0,0,0,2.333-1.86Z" transform="translate(-1285.027 -267.946)"/><rect class="bj" width="2.795" height="11.606" transform="matrix(0.678, -0.735, 0.735, 0.678, 47.714, 115.795)"/><g transform="translate(52.538 87.321)"><g transform="translate(0 24.945)"><path class="bk" d="M1338.986,379.529" transform="translate(-1338.986 -379.529)"/></g><g transform="translate(13.703)"><path class="bk" d="M1360.167,340.971" transform="translate(-1360.167 -340.971)"/></g></g></g></g></g></g></svg>