<svg xmlns="http://www.w3.org/2000/svg" width="197.788" height="105.878" viewBox="0 0 197.788 105.878"><defs><style>.a{fill:#085929;}.b{fill:#18732c;}.b,.e,.f,.g,.h,.i,.j,.k,.l,.m,.q,.r,.s,.t{fill-rule:evenodd;}.c{fill:#008e2f;}.d{fill:#24942e;}.e{fill:#00487f;}.f{fill:#005d93;}.g{fill:#0078b8;}.h{fill:#0088c5;}.i{fill:#db004d;}.j{fill:#a6131f;}.k{fill:#dc0027;}.l{fill:#ce001d;}.m{fill:#dc0d2e;}.n,.t{fill:#e13021;}.o{fill:#e64d1c;}.p{fill:#f27c19;}.q{fill:#d07e14;}.r{fill:#ffab00;}.s{fill:#ffc83f;}.u{fill:#5d5c5c;}</style></defs><g transform="translate(0 0)"><g transform="translate(0 0)"><path class="a" d="M158.245,60.611,176.6,71.2V50.023Z" transform="translate(-158.245 24.094)"/><path class="b" d="M164.925,50.023V71.206l18.328-10.6Z" transform="translate(-146.575 24.093)"/><path class="c" d="M164.925,64.471,183.265,75.05V53.878Z" transform="translate(-146.575 30.828)"/><path class="d" d="M171.608,75.051l18.337-10.579L171.6,53.877Z" transform="translate(-134.919 30.826)"/><path class="e" d="M171.6,60.611,189.938,71.2V50.023Z" transform="translate(-134.912 24.094)"/><path class="f" d="M178.276,50.023V71.206l18.342-10.6Z" transform="translate(-123.251 24.093)"/><path class="g" d="M196.618,46.168,178.276,56.756l18.342,10.59Z" transform="translate(-123.252 17.359)"/><path class="h" d="M178.276,42.314V63.491L196.618,52.9Z" transform="translate(-123.251 10.625)"/><path class="i" d="M196.618,38.463,178.276,49.042l18.342,10.59Z" transform="translate(-123.252 3.897)"/><path class="j" d="M178.276,34.606V55.781L196.618,45.2Z" transform="translate(-123.251 -2.841)"/><path class="k" d="M189.937,34.606,171.6,45.2l18.337,10.582Z" transform="translate(-134.913 -2.841)"/><path class="l" d="M171.6,30.757V51.926l18.337-10.593Z" transform="translate(-134.912 -9.566)"/><path class="m" d="M183.264,30.757l-18.34,10.576,18.34,10.593Z" transform="translate(-146.576 -9.566)"/><path class="n" d="M158.251,51.926l18.334-10.593L158.251,30.757Z" transform="translate(-158.235 -9.566)"/><path class="o" d="M158.251,37.5l18.334,10.576V26.9Z" transform="translate(-158.235 -16.308)"/><path class="p" d="M158.251,23.043V44.234l18.334-10.6Z" transform="translate(-158.235 -23.043)"/><path class="q" d="M171.6,46.279V59.9l11.79-6.8Z" transform="translate(-134.912 17.553)"/><path class="r" d="M183.4,43.8l-11.8,6.81,11.8,6.816Z" transform="translate(-134.919 13.222)"/><path class="s" d="M171.6,41.324V54.938l11.79-6.81Z" transform="translate(-134.912 8.895)"/><path class="q" d="M179.106,46.279V59.9l-11.8-6.8Z" transform="translate(-142.418 17.553)"/><path class="r" d="M167.3,43.8l11.8,6.81-11.8,6.816Z" transform="translate(-142.418 13.222)"/><path class="s" d="M179.106,41.324V54.938l-11.8-6.81Z" transform="translate(-142.418 8.895)"/><path class="o" d="M158.245,45.2,176.6,55.779V34.607Z" transform="translate(-158.245 -2.84)"/><path class="t" d="M164.925,34.606V55.781L183.265,45.2Z" transform="translate(-146.575 -2.841)"/><path class="u" d="M214.041,64.841a10.06,10.06,0,0,1-1.349,5.019,9.628,9.628,0,0,1-8.475,4.986,9.207,9.207,0,0,1-6.925-2.884,9.782,9.782,0,0,1-2.846-7.225,10.232,10.232,0,0,1,1.269-5.1,8.993,8.993,0,0,1,3.582-3.555,9.992,9.992,0,0,1,4.964-1.324,9.35,9.35,0,0,1,4.821,1.321,9.691,9.691,0,0,1,3.6,3.714,10.286,10.286,0,0,1,1.36,5.044m1.808-11.395a15.178,15.178,0,0,0-11.227-4.783,15.486,15.486,0,0,0-6.807,1.522,15.031,15.031,0,0,0-3.112,2.027V38.475h-6.414l.025,26.9a14.939,14.939,0,0,0,2.964,9.56,20,20,0,0,0,6.208,4.739,17.219,17.219,0,0,0,7.033,1.45,15.324,15.324,0,0,0,11.293-4.752,15.65,15.65,0,0,0,4.678-11.4,15.962,15.962,0,0,0-4.64-11.529" transform="translate(-105.761 3.918)"/><rect class="u" width="6.467" height="42.36" transform="translate(117.963 42.33)"/><path class="u" d="M230.4,58.556a10.366,10.366,0,0,1-1.288,5.044,8.714,8.714,0,0,1-3.453,3.552,10.051,10.051,0,0,1-9.659,0,8.856,8.856,0,0,1-3.47-3.552,10.235,10.235,0,0,1-1.3-5.044,9.754,9.754,0,0,1,2.846-7.107,9.254,9.254,0,0,1,13.488,0,9.788,9.788,0,0,1,2.835,7.107m2.253-11.216a16.128,16.128,0,0,0-23.688.033,16.532,16.532,0,0,0,.239,22.391,16.313,16.313,0,0,0,23.221,0A16,16,0,0,0,236.9,58.5a16.2,16.2,0,0,0-4.255-11.161" transform="translate(-77.065 10.382)"/><path class="u" d="M241.936,49.048h0l5.277-7.31H239.4l-1.651,2.294h-.011l-.047.077-.209.28V44.4l-6.491,9.1-6.755-9.475h-7.813l10.659,14.815L215.4,75.071h7.774L230.988,64.2,238.9,75.071h7.89L234.878,58.836Z" transform="translate(-58.399 9.618)"/><path class="u" d="M231.865,41.578a.621.621,0,1,1-.011,1.242h-1.11V41.578Zm.558,1.95c1.709-.33,1.437-2.9-.558-2.9h-2.146V45.21h1.025v-1.5h.58l1.192,1.5h1.121v-.225Zm-.978,2.884a3.216,3.216,0,0,0,3.324-3.472,3.319,3.319,0,1,0-6.629,0,3.212,3.212,0,0,0,3.3,3.472m4.456-3.472a4.447,4.447,0,1,1-8.892,0,4.446,4.446,0,1,1,8.892,0" transform="translate(-38.112 3.878)"/></g><path class="a" d="M158.245,60.611,176.6,71.2V50.023Z" transform="translate(-158.245 24.094)"/><path class="b" d="M164.925,50.023V71.206l18.328-10.6Z" transform="translate(-146.575 24.093)"/><path class="c" d="M164.925,64.471,183.265,75.05V53.878Z" transform="translate(-146.575 30.828)"/><path class="d" d="M171.608,75.051l18.337-10.579L171.6,53.877Z" transform="translate(-134.919 30.826)"/><path class="e" d="M171.6,60.611,189.938,71.2V50.023Z" transform="translate(-134.912 24.094)"/><path class="f" d="M178.276,50.023V71.206l18.342-10.6Z" transform="translate(-123.251 24.093)"/><path class="g" d="M196.618,46.168,178.276,56.756l18.342,10.59Z" transform="translate(-123.252 17.359)"/><path class="h" d="M178.276,42.314V63.491L196.618,52.9Z" transform="translate(-123.251 10.625)"/><path class="i" d="M196.618,38.463,178.276,49.042l18.342,10.59Z" transform="translate(-123.252 3.897)"/><path class="j" d="M178.276,34.606V55.781L196.618,45.2Z" transform="translate(-123.251 -2.841)"/><path class="k" d="M189.937,34.606,171.6,45.2l18.337,10.582Z" transform="translate(-134.913 -2.841)"/><path class="l" d="M171.6,30.757V51.926l18.337-10.593Z" transform="translate(-134.912 -9.566)"/><path class="m" d="M183.264,30.757l-18.34,10.576,18.34,10.593Z" transform="translate(-146.576 -9.566)"/><path class="n" d="M158.251,51.926l18.334-10.593L158.251,30.757Z" transform="translate(-158.235 -9.566)"/><path class="o" d="M158.251,37.5l18.334,10.576V26.9Z" transform="translate(-158.235 -16.308)"/><path class="p" d="M158.251,23.043V44.234l18.334-10.6Z" transform="translate(-158.235 -23.043)"/><path class="q" d="M171.6,46.279V59.9l11.79-6.8Z" transform="translate(-134.912 17.552)"/><path class="r" d="M183.4,43.8l-11.8,6.81,11.8,6.816Z" transform="translate(-134.919 13.222)"/><path class="s" d="M171.6,41.324V54.938l11.79-6.81Z" transform="translate(-134.912 8.895)"/><path class="q" d="M179.106,46.279V59.9l-11.8-6.8Z" transform="translate(-142.418 17.552)"/><path class="r" d="M167.3,43.8l11.8,6.81-11.8,6.816Z" transform="translate(-142.418 13.222)"/><path class="s" d="M179.106,41.324V54.938l-11.8-6.81Z" transform="translate(-142.418 8.895)"/><path class="o" d="M158.245,45.2,176.6,55.779V34.607Z" transform="translate(-158.245 -2.84)"/><path class="t" d="M164.925,34.606V55.781L183.265,45.2Z" transform="translate(-146.575 -2.841)"/></g></svg>