<svg width="56" height="33" viewBox="0 0 56 33" fill="none" xmlns="http://www.w3.org/2000/svg">
<path d="M5.52633 32L1.57895 32C1.26316 32 0.789476 31.7556 0.789476 31.3889C0.789476 31.3889 7.77698e-08 29.5556 3.44895e-07 26.5C6.1202e-07 23.4444 0.789477 21.6111 0.789477 21.6111C0.789477 21.2444 1.10527 21 1.57895 21L5.52633 21C5.84213 21 6 21.2444 6 21.6111L6 31.3889C6 31.7556 6 32 5.52633 32Z" fill="#FD5F7D"/>
<path d="M50.4737 22H54.421C54.7368 22 55.2105 22.2444 55.2105 22.6111C55.2105 22.6111 56 24.4444 56 27.5C56 30.5556 55.2105 32.3889 55.2105 32.3889C55.2105 32.7556 54.8947 33 54.421 33H50.4737C50.1579 33 50 32.7556 50 32.3889V22.6111C50 22.2444 50 22 50.4737 22Z" fill="#FD5F7D"/>
<path d="M52 26C52 12.7452 41.2548 2 28 2C14.7452 2 4 12.7452 4 26" stroke="#FD5F7D" stroke-width="3"/>
</svg>
