<svg width="150" height="32" viewBox="0 0 150 32" fill="none" xmlns="http://www.w3.org/2000/svg">
<g filter="url(#filter0_d)">
<path d="M17.7152 14.334L17.9252 9.756H17.6732L12.9692 17.442H11.9612L7.04722 9.756H6.83722L7.08922 13.872V30H1.62922V0.599998H7.46722L12.5072 8.748H12.6752L17.6732 0.599998H23.4692V30H17.7152V14.334ZM28.9128 10.428C30.0328 9.924 31.3208 9.49 32.7768 9.126C34.2608 8.762 36.0108 8.58 38.0268 8.58C39.4828 8.58 40.7148 8.762 41.7228 9.126C42.7588 9.462 43.5848 9.952 44.2008 10.596C44.8448 11.24 45.3068 12.01 45.5868 12.906C45.8668 13.802 46.0068 14.81 46.0068 15.93C46.0068 17.358 45.9508 18.576 45.8388 19.584C45.7548 20.592 45.7128 21.488 45.7128 22.272C45.7128 22.86 45.7408 23.518 45.7968 24.246C45.8528 24.638 45.8948 25.016 45.9228 25.38H48.6528V30H41.6808L41.1348 27.144H40.9248C40.3648 28.012 39.5668 28.768 38.5308 29.412C37.4948 30.028 36.0948 30.336 34.3308 30.336C32.2308 30.336 30.5648 29.776 29.3328 28.656C28.1008 27.536 27.4848 26.052 27.4848 24.204C27.4848 23.028 27.6948 22.02 28.1148 21.18C28.5628 20.312 29.1928 19.612 30.0048 19.08C30.8448 18.52 31.8388 18.114 32.9868 17.862C34.1628 17.582 35.4648 17.442 36.8928 17.442C37.3968 17.442 37.9288 17.47 38.4888 17.526C39.0488 17.582 39.7348 17.638 40.5468 17.694C40.6028 17.414 40.6308 17.134 40.6308 16.854V16.056C40.6308 14.992 40.3228 14.236 39.7068 13.788C39.0908 13.312 38.1808 13.074 36.9768 13.074C35.5488 13.074 34.2608 13.256 33.1128 13.62C31.9648 13.984 30.9988 14.348 30.2148 14.712L28.9128 10.428ZM36.0948 25.842C37.4388 25.842 38.4468 25.604 39.1188 25.128C39.7908 24.624 40.2808 24.092 40.5888 23.532V21.012C40.3088 20.956 39.8888 20.9 39.3288 20.844C38.7688 20.76 38.1668 20.718 37.5228 20.718C36.9908 20.718 36.4588 20.774 35.9268 20.886C35.3948 20.97 34.9188 21.124 34.4988 21.348C34.0788 21.544 33.7428 21.81 33.4908 22.146C33.2388 22.482 33.1128 22.888 33.1128 23.364C33.1128 24.148 33.3368 24.764 33.7848 25.212C34.2608 25.632 35.0308 25.842 36.0948 25.842ZM55.1884 13.62H51.0304V9H55.1884V4.212L60.6484 2.658V9H71.6524V13.62H60.6484V19.626C60.6484 21.782 61.0544 23.35 61.8664 24.33C62.6784 25.282 63.8124 25.758 65.2684 25.758C66.0244 25.758 66.7104 25.674 67.3264 25.506C67.9424 25.31 68.4884 25.072 68.9644 24.792C69.4684 24.512 69.9164 24.204 70.3084 23.868C70.7284 23.532 71.1064 23.224 71.4424 22.944L73.9624 26.724C73.4864 27.284 72.8844 27.802 72.1564 28.278C71.4564 28.726 70.6864 29.132 69.8464 29.496C69.0344 29.832 68.1804 30.098 67.2844 30.294C66.3884 30.49 65.5064 30.588 64.6384 30.588C61.5024 30.588 59.1364 29.72 57.5404 27.984C55.9724 26.22 55.1884 23.434 55.1884 19.626V13.62ZM77.138 25.38H82.346V13.62H77.138V9H86.588L87.218 11.772H87.386C88.17 10.848 89.066 10.078 90.074 9.462C91.082 8.846 92.258 8.538 93.602 8.538C95.282 8.538 96.598 9.154 97.55 10.386C98.53 11.618 99.02 13.676 99.02 16.56H94.106C94.106 15.552 93.952 14.824 93.644 14.376C93.364 13.9 92.902 13.662 92.258 13.662C91.138 13.662 90.228 13.942 89.528 14.502C88.856 15.062 88.282 15.706 87.806 16.434V25.38H96.92V30H77.138V25.38ZM103.162 25.38H110.554V13.62H103.162V9H116.014V25.38H123.784V30H103.162V25.38ZM109.546 3.288C109.546 2.42 109.868 1.678 110.512 1.062C111.156 0.445999 112.052 0.137999 113.2 0.137999C114.376 0.137999 115.314 0.445999 116.014 1.062C116.714 1.678 117.064 2.42 117.064 3.288C117.064 4.184 116.714 4.926 116.014 5.514C115.314 6.074 114.376 6.354 113.2 6.354C112.052 6.354 111.156 6.074 110.512 5.514C109.868 4.926 109.546 4.184 109.546 3.288ZM134.729 19.164L127.421 9H133.931L138.677 16.014L143.633 9H149.555L142.373 19.08L149.975 30H143.633L138.299 22.272L132.881 30H126.917L134.729 19.164Z" fill="#FD5F7D"/>
</g>
<defs>
<filter id="filter0_d" x="0.629211" y="0.138" width="149.346" height="31.45" filterUnits="userSpaceOnUse" color-interpolation-filters="sRGB">
<feFlood flood-opacity="0" result="BackgroundImageFix"/>
<feColorMatrix in="SourceAlpha" type="matrix" values="0 0 0 0 0 0 0 0 0 0 0 0 0 0 0 0 0 0 127 0"/>
<feOffset dx="-1" dy="1"/>
<feColorMatrix type="matrix" values="0 0 0 0 0 0 0 0 0 0.380392 0 0 0 0 0.764706 0 0 0 1 0"/>
<feBlend mode="normal" in2="BackgroundImageFix" result="effect1_dropShadow"/>
<feBlend mode="normal" in="SourceGraphic" in2="effect1_dropShadow" result="shape"/>
</filter>
</defs>
</svg>
