<svg width="80" height="18" viewBox="0 0 80 18" fill="none" xmlns="http://www.w3.org/2000/svg">
<g filter="url(#filter0_d)">
<path d="M10.2318 7.794L10.3418 5.396H10.2098L7.74578 9.422H7.21778L4.64378 5.396H4.53378L4.66578 7.552V16H1.80578V0.599999H4.86378L7.50378 4.868H7.59178L10.2098 0.599999H13.2458V16H10.2318V7.794ZM16.0972 5.748C16.6839 5.484 17.3585 5.25667 18.1212 5.066C18.8985 4.87533 19.8152 4.78 20.8712 4.78C21.6339 4.78 22.2792 4.87533 22.8072 5.066C23.3499 5.242 23.7825 5.49867 24.1052 5.836C24.4425 6.17333 24.6845 6.57667 24.8312 7.046C24.9779 7.51533 25.0512 8.04333 25.0512 8.63C25.0512 9.378 25.0219 10.016 24.9632 10.544C24.9192 11.072 24.8972 11.5413 24.8972 11.952C24.8972 12.26 24.9119 12.6047 24.9412 12.986C24.9705 13.1913 24.9925 13.3893 25.0072 13.58H26.4372V16H22.7852L22.4992 14.504H22.3892C22.0959 14.9587 21.6779 15.3547 21.1352 15.692C20.5925 16.0147 19.8592 16.176 18.9352 16.176C17.8352 16.176 16.9625 15.8827 16.3172 15.296C15.6719 14.7093 15.3492 13.932 15.3492 12.964C15.3492 12.348 15.4592 11.82 15.6792 11.38C15.9139 10.9253 16.2439 10.5587 16.6692 10.28C17.1092 9.98667 17.6299 9.774 18.2312 9.642C18.8472 9.49533 19.5292 9.422 20.2772 9.422C20.5412 9.422 20.8199 9.43667 21.1132 9.466C21.4065 9.49533 21.7659 9.52467 22.1912 9.554C22.2205 9.40733 22.2352 9.26067 22.2352 9.114V8.696C22.2352 8.13867 22.0739 7.74267 21.7512 7.508C21.4285 7.25867 20.9519 7.134 20.3212 7.134C19.5732 7.134 18.8985 7.22933 18.2972 7.42C17.6959 7.61067 17.1899 7.80133 16.7792 7.992L16.0972 5.748ZM19.8592 13.822C20.5632 13.822 21.0912 13.6973 21.4432 13.448C21.7952 13.184 22.0519 12.9053 22.2132 12.612V11.292C22.0665 11.2627 21.8465 11.2333 21.5532 11.204C21.2599 11.16 20.9445 11.138 20.6072 11.138C20.3285 11.138 20.0499 11.1673 19.7712 11.226C19.4925 11.27 19.2432 11.3507 19.0232 11.468C18.8032 11.5707 18.6272 11.71 18.4952 11.886C18.3632 12.062 18.2972 12.2747 18.2972 12.524C18.2972 12.9347 18.4145 13.2573 18.6492 13.492C18.8985 13.712 19.3019 13.822 19.8592 13.822ZM29.8606 7.42H27.6826V5H29.8606V2.492L32.7206 1.678V5H38.4846V7.42H32.7206V10.566C32.7206 11.6953 32.9333 12.5167 33.3586 13.03C33.7839 13.5287 34.3779 13.778 35.1406 13.778C35.5366 13.778 35.8959 13.734 36.2186 13.646C36.5413 13.5433 36.8273 13.4187 37.0766 13.272C37.3406 13.1253 37.5753 12.964 37.7806 12.788C38.0006 12.612 38.1986 12.4507 38.3746 12.304L39.6946 14.284C39.4453 14.5773 39.1299 14.8487 38.7486 15.098C38.3819 15.3327 37.9786 15.5453 37.5386 15.736C37.1133 15.912 36.6659 16.0513 36.1966 16.154C35.7273 16.2567 35.2653 16.308 34.8106 16.308C33.1679 16.308 31.9286 15.8533 31.0926 14.944C30.2713 14.02 29.8606 12.5607 29.8606 10.566V7.42ZM41.358 13.58H44.086V7.42H41.358V5H46.308L46.638 6.452H46.726C47.1367 5.968 47.606 5.56467 48.134 5.242C48.662 4.91933 49.278 4.758 49.982 4.758C50.862 4.758 51.5513 5.08067 52.05 5.726C52.5633 6.37133 52.82 7.44933 52.82 8.96H50.246C50.246 8.432 50.1653 8.05067 50.004 7.816C49.8573 7.56667 49.6153 7.442 49.278 7.442C48.6913 7.442 48.2147 7.58867 47.848 7.882C47.496 8.17533 47.1953 8.51267 46.946 8.894V13.58H51.72V16H41.358V13.58ZM54.9894 13.58H58.8614V7.42H54.9894V5H61.7214V13.58H65.7914V16H54.9894V13.58ZM58.3334 2.008C58.3334 1.55333 58.5021 1.16467 58.8394 0.842C59.1767 0.519333 59.6461 0.357999 60.2474 0.357999C60.8634 0.357999 61.3547 0.519333 61.7214 0.842C62.0881 1.16467 62.2714 1.55333 62.2714 2.008C62.2714 2.47733 62.0881 2.866 61.7214 3.174C61.3547 3.46733 60.8634 3.614 60.2474 3.614C59.6461 3.614 59.1767 3.46733 58.8394 3.174C58.5021 2.866 58.3334 2.47733 58.3334 2.008ZM71.5248 10.324L67.6968 5H71.1068L73.5928 8.674L76.1888 5H79.2908L75.5288 10.28L79.5108 16H76.1888L73.3948 11.952L70.5568 16H67.4328L71.5248 10.324Z" fill="#FD5F7D"/>
</g>
<defs>
<filter id="filter0_d" x="0.805786" y="0.358002" width="78.705" height="16.95" filterUnits="userSpaceOnUse" color-interpolation-filters="sRGB">
<feFlood flood-opacity="0" result="BackgroundImageFix"/>
<feColorMatrix in="SourceAlpha" type="matrix" values="0 0 0 0 0 0 0 0 0 0 0 0 0 0 0 0 0 0 127 0"/>
<feOffset dx="-1" dy="1"/>
<feColorMatrix type="matrix" values="0 0 0 0 0 0 0 0 0 0.380392 0 0 0 0 0.764706 0 0 0 1 0"/>
<feBlend mode="normal" in2="BackgroundImageFix" result="effect1_dropShadow"/>
<feBlend mode="normal" in="SourceGraphic" in2="effect1_dropShadow" result="shape"/>
</filter>
</defs>
</svg>
