<?xml version="1.0" encoding="iso-8859-1"?>
<!-- Generator: Adobe Illustrator 19.0.0, SVG Export Plug-In . SVG Version: 6.00 Build 0)  -->
<svg version="1.1" id="Layer_1" xmlns="http://www.w3.org/2000/svg" xmlns:xlink="http://www.w3.org/1999/xlink" x="0px" y="0px"
	 viewBox="0 0 512 512" style="enable-background:new 0 0 512 512;" xml:space="preserve">
<g>
	<g>
		<path d="M472.345,355.081c-8.729-64.995-64.55-115.272-131.883-115.272h-114.33c1.894-4.349,3.618-8.803,5.121-13.363
			c1.979-5.967,2.973-12.199,2.973-18.526c0-4.793-0.571-9.596-1.693-14.347c13.712-9.078,27.72-20.653,40.935-33.857
			c20.155-20.166,36.396-42.057,45.717-61.641c13.955-29.318,8.221-44.13,0.963-51.399c-7.269-7.258-22.092-13.003-51.409,0.952
			c-3.036,1.439-6.137,3.068-9.268,4.846c-0.159-24.356-7.332-40.067-20.928-45.008c-28.969-10.485-63.482,37.422-82.611,90.186
			c-5.269,14.527-9.332,29.307-11.935,43.242c-59.154,7.142-107.506,45.527-126.138,101.877c-1.979,5.967-2.973,12.199-2.973,18.526
			c0,26.916,17.521,51.991,42.353,62.73c-6.147,15.5-9.258,31.889-9.258,48.87c0,20.187,4.518,39.845,13.162,57.758H37.666
			C16.897,430.656,0,447.552,0,468.321c0,20.758,16.897,37.655,37.666,37.655l302.797,0.011c35.539,0,68.952-13.839,94.111-38.978
			c6.888-6.898,12.919-14.41,18.05-22.42c4.317,1.312,8.824,2.021,13.384,2.021c25.361,0,45.992-20.631,45.992-45.982
			C512,377.416,494.712,358.181,472.345,355.081z M175.823,104.868c20.642-56.932,48.246-80.135,55.493-77.511
			c3.365,1.217,8.993,12.495,6.263,39.496c-10.252,7.65-20.568,16.6-30.471,26.504c-15.087,15.077-27.89,31.011-37.391,46.447
			c-1.016-0.063-3.618-0.127-3.915-0.127C168.194,128.388,171.58,116.559,175.823,104.868z M438.552,426.878
			c-5.036,9.12-11.384,17.595-18.949,25.17c-21.15,21.139-49.251,32.778-79.14,32.778H224.164v-0.011
			c-9.099,0-16.505-7.396-16.505-16.495c0-9.11,7.406-16.505,16.505-16.505h47.886c5.84,0,10.58-4.74,10.58-10.58v-17.923
			c0-29.529,24.017-53.547,53.547-53.547h13.987c5.84,0,10.58-4.74,10.58-10.58c0-5.851-4.74-10.58-10.58-10.58h-13.987
			c-41.2,0-74.707,33.508-74.707,74.707v7.343h-37.306c-20.769,0-37.666,16.897-37.666,37.666c0,5.914,1.375,11.511,3.82,16.495
			H37.666c-9.099,0-16.505-7.396-16.505-16.495c0-9.11,7.406-16.505,16.505-16.505h41.718c2.031,0,4.084-0.582,5.904-1.809
			c4.846-3.259,6.126-9.84,2.867-14.685c-12.442-18.463-19.013-40.057-19.013-62.424c0-17.754,4.031-34.735,11.987-50.457
			c2.645-5.206,0.55-11.575-4.655-14.22c-0.815-0.402-1.651-0.688-2.497-0.878c-10.633-2.359-20.113-8.591-26.937-16.876
			c-6.824-8.284-10.993-18.621-10.993-29.17c0-4.063,0.635-8.073,1.904-11.892c8.76-26.482,25.202-48.786,47.548-64.497
			c22.42-15.743,49.611-24.07,78.654-24.07c0.751,0,6.941,0.275,9.3,0.698c4.55,0.804,8.93-1.428,11.067-5.237l0.011,0.011
			c8.697-15.426,22.028-32.471,37.539-47.992c10.284-10.284,20.959-19.404,31.413-26.906c0.222-0.148,0.434-0.296,0.635-0.455
			c8.147-5.809,16.156-10.623,23.721-14.22c16.124-7.671,25.192-7.258,27.339-5.1c2.158,2.158,2.582,11.215-5.1,27.35
			c-8.316,17.457-23.076,37.264-41.57,55.758c-13.754,13.754-28.345,25.541-42.3,34.164l0.095,0.159
			c-4.222,1.608-6.814,5.629-6.814,9.893c0,1.248,0.222,2.518,0.688,3.756c1.915,5.036,2.888,10.146,2.888,15.204
			c0,4.063-0.645,8.073-1.904,11.892c-2.941,8.909-6.771,17.383-11.384,25.213c-2.963,5.036-1.28,11.522,3.756,14.484
			c1.682,0.995,3.534,1.46,5.354,1.46h131.576c61.715,0,111.918,50.214,111.918,111.929
			C452.38,399.084,438.711,426.54,438.552,426.878z M466.008,425.45c-1.047,0-2.095-0.074-3.132-0.201
			c6.475-15.13,10.094-31.445,10.601-48.31c10.051,3.185,17.362,12.591,17.362,23.689C490.839,414.32,479.698,425.45,466.008,425.45
			z"/>
	</g>
</g>
<g>
	<g>
		<circle cx="102.311" cy="223.497" r="12.823"/>
	</g>
</g>
<g>
	<g>
		<path d="M340.457,276.841c-5.842,0-10.58,4.738-10.58,10.58c0,5.842,4.738,10.58,10.58,10.58
			c41.297,0,74.895,33.598,74.895,74.894c0,5.842,4.738,10.58,10.58,10.58s10.58-4.738,10.58-10.58
			C436.512,319.931,393.423,276.841,340.457,276.841z"/>
	</g>
</g>
<g>
</g>
<g>
</g>
<g>
</g>
<g>
</g>
<g>
</g>
<g>
</g>
<g>
</g>
<g>
</g>
<g>
</g>
<g>
</g>
<g>
</g>
<g>
</g>
<g>
</g>
<g>
</g>
<g>
</g>
</svg>
