<?xml version="1.0" standalone="no"?>
<!DOCTYPE svg PUBLIC "-//W3C//DTD SVG 20010904//EN"
 "http://www.w3.org/TR/2001/REC-SVG-20010904/DTD/svg10.dtd">
<svg version="1.0" xmlns="http://www.w3.org/2000/svg"
 width="260.000000pt" height="260.000000pt" viewBox="0 0 260.000000 260.000000"
 preserveAspectRatio="xMidYMid meet">
<metadata>
Created by potrace 1.11, written by Peter Selinger 2001-2013
</metadata>
<g transform="translate(0.000000,260.000000) scale(0.100000,-0.100000)"
fill="#000000" stroke="none">
<path d="M412 2058 l3 -510 214 -124 c118 -68 216 -124 218 -124 2 0 91 50
196 112 106 61 204 117 219 125 29 15 -4 31 381 -190 l88 -51 -3 -255 -3 -254
-35 -20 c-19 -11 -112 -64 -206 -118 -94 -54 -178 -101 -187 -104 -10 -4 -75
28 -174 86 -87 50 -185 107 -218 125 l-60 32 -218 -125 c-189 -109 -215 -127
-200 -138 10 -6 207 -121 437 -254 317 -183 424 -240 437 -234 10 4 209 118
443 253 l426 245 -3 510 c-2 498 -2 510 -22 520 -11 6 -49 28 -85 49 -36 21
-78 46 -95 56 -144 82 -272 156 -459 263 l-218 127 -49 -28 c-27 -15 -125 -71
-218 -124 -93 -54 -171 -98 -173 -98 -2 0 -2 114 -1 252 l2 253 -220 127 -219
127 2 -511z"/>
<path d="M1140 1280 l-135 -79 -1 -153 c0 -84 3 -160 7 -169 7 -14 65 -50 235
-145 l41 -23 141 80 142 81 0 163 0 164 -92 54 c-135 79 -186 107 -195 106 -4
0 -69 -36 -143 -79z"/>
</g>
</svg>
