<svg xmlns="http://www.w3.org/2000/svg" width="77.68" height="41.583" viewBox="0 0 77.68 41.583"><defs><style>.a{fill:#085929;}.b{fill:#18732c;}.b,.e,.f,.g,.h,.i,.j,.k,.l,.m,.q,.r,.s,.t{fill-rule:evenodd;}.c{fill:#008e2f;}.d{fill:#24942e;}.e{fill:#00487f;}.f{fill:#005d93;}.g{fill:#0078b8;}.h{fill:#0088c5;}.i{fill:#db004d;}.j{fill:#a6131f;}.k{fill:#dc0027;}.l{fill:#ce001d;}.m{fill:#dc0d2e;}.n,.t{fill:#e13021;}.o{fill:#e64d1c;}.p{fill:#f27c19;}.q{fill:#d07e14;}.r{fill:#ffab00;}.s{fill:#ffc83f;}.u{fill:#5d5c5c;}</style></defs><g transform="translate(0 0)"><g transform="translate(0 0)"><path class="a" d="M158.245,54.181l7.207,4.16V50.023Z" transform="translate(-158.245 -20.914)"/><path class="b" d="M164.925,50.023v8.319l7.2-4.161Z" transform="translate(-157.718 -20.914)"/><path class="c" d="M164.925,58.038l7.2,4.155V53.878Z" transform="translate(-157.718 -20.61)"/><path class="d" d="M171.6,62.193l7.2-4.155L171.6,53.877Z" transform="translate(-157.192 -20.61)"/><path class="e" d="M171.6,54.181l7.2,4.16V50.023Z" transform="translate(-157.192 -20.914)"/><path class="f" d="M178.276,50.023v8.319l7.2-4.161Z" transform="translate(-156.665 -20.914)"/><path class="g" d="M185.479,46.168l-7.2,4.158,7.2,4.159Z" transform="translate(-156.665 -21.218)"/><path class="h" d="M178.276,42.314v8.317l7.2-4.159Z" transform="translate(-156.665 -21.522)"/><path class="i" d="M185.479,38.463l-7.2,4.155,7.2,4.159Z" transform="translate(-156.665 -21.826)"/><path class="j" d="M178.276,34.606v8.316l7.2-4.156Z" transform="translate(-156.665 -22.131)"/><path class="k" d="M178.8,34.606l-7.2,4.16,7.2,4.156Z" transform="translate(-157.192 -22.131)"/><path class="l" d="M171.6,30.757v8.314l7.2-4.16Z" transform="translate(-157.192 -22.434)"/><path class="m" d="M172.128,30.757l-7.2,4.154,7.2,4.16Z" transform="translate(-157.718 -22.434)"/><path class="n" d="M158.251,39.071l7.2-4.16-7.2-4.154Z" transform="translate(-158.245 -22.434)"/><path class="o" d="M158.251,31.061l7.2,4.154V26.9Z" transform="translate(-158.245 -22.739)"/><path class="p" d="M158.251,23.043v8.323l7.2-4.165Z" transform="translate(-158.245 -23.043)"/><path class="q" d="M171.6,46.279v5.349l4.631-2.672Z" transform="translate(-157.192 -21.21)"/><path class="r" d="M176.232,43.8,171.6,46.475l4.635,2.677Z" transform="translate(-157.192 -21.405)"/><path class="s" d="M171.6,41.324v5.347L176.232,44Z" transform="translate(-157.192 -21.601)"/><path class="q" d="M171.94,46.279v5.349L167.3,48.956Z" transform="translate(-157.531 -21.21)"/><path class="r" d="M167.3,43.8l4.635,2.675L167.3,49.152Z" transform="translate(-157.53 -21.405)"/><path class="s" d="M171.94,41.324v5.347L167.3,44Z" transform="translate(-157.531 -21.601)"/><path class="o" d="M158.245,38.767l7.207,4.155V34.607Z" transform="translate(-158.245 -22.131)"/><path class="t" d="M164.925,34.606v8.316l7.2-4.156Z" transform="translate(-157.718 -22.131)"/><path class="u" d="M198.4,48.83a3.951,3.951,0,0,1-.53,1.971,3.781,3.781,0,0,1-3.328,1.958,3.616,3.616,0,0,1-2.72-1.133,3.842,3.842,0,0,1-1.118-2.838,4.019,4.019,0,0,1,.5-2,3.532,3.532,0,0,1,1.407-1.4,3.924,3.924,0,0,1,1.95-.52,3.672,3.672,0,0,1,1.893.519,3.806,3.806,0,0,1,1.413,1.459,4.04,4.04,0,0,1,.534,1.981m.71-4.475a5.961,5.961,0,0,0-4.409-1.878,6.082,6.082,0,0,0-2.674.6,5.9,5.9,0,0,0-1.222.8v-5.4h-2.519l.01,10.566a5.867,5.867,0,0,0,1.164,3.755,7.856,7.856,0,0,0,2.438,1.861,6.763,6.763,0,0,0,2.762.57A6.019,6.019,0,0,0,199.1,53.36a6.147,6.147,0,0,0,1.837-4.476,6.269,6.269,0,0,0-1.822-4.528" transform="translate(-155.875 -21.825)"/><rect class="u" width="2.54" height="16.637" transform="translate(46.329 16.625)"/><path class="u" d="M214.8,48.608a4.071,4.071,0,0,1-.506,1.981,3.422,3.422,0,0,1-1.356,1.4,3.948,3.948,0,0,1-3.793,0,3.478,3.478,0,0,1-1.363-1.4,4.02,4.02,0,0,1-.51-1.981,3.831,3.831,0,0,1,1.118-2.791,3.634,3.634,0,0,1,5.3,0,3.844,3.844,0,0,1,1.113,2.791m.885-4.405a6.334,6.334,0,0,0-9.3.013,6.493,6.493,0,0,0,.094,8.794,6.407,6.407,0,0,0,9.12,0,6.283,6.283,0,0,0,1.761-4.424,6.364,6.364,0,0,0-1.671-4.384" transform="translate(-154.579 -21.533)"/><path class="u" d="M225.819,44.609h0l2.073-2.871h-3.069l-.648.9h0l-.018.03-.082.11v.005L221.52,46.36l-2.653-3.721H215.8l4.186,5.819L215.4,54.829h3.053l3.071-4.268,3.108,4.268h3.1l-4.679-6.376Z" transform="translate(-153.736 -21.568)"/><path class="u" d="M228.915,39.68a.244.244,0,1,1,0,.488h-.436V39.68Zm.219.766a.58.58,0,0,0-.219-1.137h-.843v1.8h.4v-.589h.228l.468.589h.44v-.088Zm-.384,1.133a1.368,1.368,0,1,0-1.3-1.364,1.263,1.263,0,0,0,1.3,1.364m1.75-1.364a1.746,1.746,0,1,1-1.75-1.763,1.674,1.674,0,0,1,1.75,1.763" transform="translate(-152.82 -21.827)"/></g><path class="a" d="M158.245,54.181l7.207,4.16V50.023Z" transform="translate(-158.245 -20.914)"/><path class="b" d="M164.925,50.023v8.319l7.2-4.161Z" transform="translate(-157.718 -20.914)"/><path class="c" d="M164.925,58.038l7.2,4.155V53.878Z" transform="translate(-157.718 -20.61)"/><path class="d" d="M171.6,62.193l7.2-4.155L171.6,53.877Z" transform="translate(-157.192 -20.61)"/><path class="e" d="M171.6,54.181l7.2,4.16V50.023Z" transform="translate(-157.192 -20.914)"/><path class="f" d="M178.276,50.023v8.319l7.2-4.161Z" transform="translate(-156.665 -20.914)"/><path class="g" d="M185.479,46.168l-7.2,4.158,7.2,4.159Z" transform="translate(-156.665 -21.218)"/><path class="h" d="M178.276,42.314v8.317l7.2-4.159Z" transform="translate(-156.665 -21.523)"/><path class="i" d="M185.479,38.463l-7.2,4.155,7.2,4.159Z" transform="translate(-156.665 -21.826)"/><path class="j" d="M178.276,34.606v8.316l7.2-4.156Z" transform="translate(-156.665 -22.131)"/><path class="k" d="M178.8,34.606l-7.2,4.16,7.2,4.156Z" transform="translate(-157.192 -22.131)"/><path class="l" d="M171.6,30.757v8.314l7.2-4.16Z" transform="translate(-157.192 -22.434)"/><path class="m" d="M172.128,30.757l-7.2,4.154,7.2,4.16Z" transform="translate(-157.718 -22.434)"/><path class="n" d="M158.251,39.071l7.2-4.16-7.2-4.154Z" transform="translate(-158.245 -22.434)"/><path class="o" d="M158.251,31.061l7.2,4.154V26.9Z" transform="translate(-158.245 -22.739)"/><path class="p" d="M158.251,23.043v8.323l7.2-4.165Z" transform="translate(-158.245 -23.043)"/><path class="q" d="M171.6,46.279v5.349l4.631-2.672Z" transform="translate(-157.192 -21.21)"/><path class="r" d="M176.232,43.8,171.6,46.475l4.635,2.677Z" transform="translate(-157.192 -21.405)"/><path class="s" d="M171.6,41.324v5.347L176.232,44Z" transform="translate(-157.192 -21.601)"/><path class="q" d="M171.94,46.279v5.349L167.3,48.956Z" transform="translate(-157.531 -21.21)"/><path class="r" d="M167.3,43.8l4.635,2.675L167.3,49.152Z" transform="translate(-157.53 -21.405)"/><path class="s" d="M171.94,41.324v5.347L167.3,44Z" transform="translate(-157.531 -21.601)"/><path class="o" d="M158.245,38.767l7.207,4.155V34.607Z" transform="translate(-158.245 -22.131)"/><path class="t" d="M164.925,34.606v8.316l7.2-4.156Z" transform="translate(-157.718 -22.131)"/></g></svg>